<svg xmlns="http://www.w3.org/2000/svg" xmlns:xlink="http://www.w3.org/1999/xlink" width="1366" zoomAndPan="magnify" viewBox="0 0 1024.5 576" height="768" preserveAspectRatio="xMidYMid meet" version="1.0"><defs><g/><clipPath id="0a7eb145f0"><path d="M 189 0.140625 L 737 0.140625 L 737 575.859375 L 189 575.859375 Z M 189 0.140625 " clip-rule="nonzero"/></clipPath><clipPath id="a43155bfea"><path d="M 386 119 L 797 119 L 797 575.859375 L 386 575.859375 Z M 386 119 " clip-rule="nonzero"/></clipPath><clipPath id="a582728f8a"><path d="M 259.695312 46.722656 L 763.449219 46.722656 L 763.449219 550.476562 L 259.695312 550.476562 Z M 259.695312 46.722656 " clip-rule="nonzero"/></clipPath><clipPath id="642a1f46de"><path d="M 316.085938 292.324219 L 687.09375 292.324219 L 687.09375 334.835938 L 316.085938 334.835938 Z M 316.085938 292.324219 " clip-rule="nonzero"/></clipPath><clipPath id="fca291e566"><path d="M 337.339844 292.324219 L 665.835938 292.324219 C 671.476562 292.324219 676.882812 294.566406 680.867188 298.550781 C 684.851562 302.535156 687.09375 307.941406 687.09375 313.582031 C 687.09375 319.21875 684.851562 324.625 680.867188 328.609375 C 676.882812 332.59375 671.476562 334.835938 665.835938 334.835938 L 337.339844 334.835938 C 331.703125 334.835938 326.296875 332.59375 322.3125 328.609375 C 318.324219 324.625 316.085938 319.21875 316.085938 313.582031 C 316.085938 307.941406 318.324219 302.535156 322.3125 298.550781 C 326.296875 294.566406 331.703125 292.324219 337.339844 292.324219 Z M 337.339844 292.324219 " clip-rule="nonzero"/></clipPath><clipPath id="b709e320ff"><path d="M 329.382812 116.410156 L 693.703125 116.410156 L 693.703125 480.730469 L 329.382812 480.730469 Z M 329.382812 116.410156 " clip-rule="nonzero"/></clipPath></defs><g clip-path="url(#0a7eb145f0)"><path stroke-linecap="butt" transform="matrix(1.223074, 0, 0, 1.223074, 335.102495, 9.43737)" fill="none" stroke-linejoin="miter" d="M 197.503641 124.261164 C 195.705533 126.557504 193.508201 128.802743 190.914838 131.000076 C 188.717505 132.897191 185.99639 134.893314 182.754687 136.988445 C 179.509789 139.08677 175.741108 140.983885 171.448645 142.679791 C 172.844335 140.881684 172.968893 138.962212 171.82232 136.914988 C 170.675746 134.867764 168.152647 132.996199 164.259408 131.300293 C 160.36617 129.604386 155.102793 128.205503 148.462889 127.106837 C 141.826179 126.008171 133.713934 125.458838 124.132543 125.458838 C 118.540205 125.458838 112.526285 126.033722 106.087591 127.183488 C 99.648896 128.330062 93.286853 130.300634 86.998266 133.095207 C 80.706486 135.892973 74.64466 139.610552 68.803205 144.251139 C 62.964944 148.89492 57.797381 154.685274 53.306902 161.622201 C 48.81323 168.559128 45.245759 176.79593 42.601295 186.329414 C 39.953637 195.859704 38.631405 206.865529 38.631405 219.343693 C 38.631405 231.821858 40.154846 242.802132 43.198535 252.287709 C 46.242223 261.770092 50.28557 269.930243 55.328576 276.768162 C 60.368387 283.606082 66.133191 289.297428 72.622986 293.839007 C 79.109588 298.380586 85.749492 302.024709 92.53631 304.76818 C 99.326323 307.514846 105.988583 309.437511 112.526285 310.532984 C 119.063988 311.63165 124.9789 312.180983 130.271021 312.180983 C 136.358398 312.081975 142.698085 311.63165 149.286888 310.833201 C 154.978234 310.133759 161.24127 309.111744 168.07919 307.763962 C 174.917109 306.416179 181.63047 304.445607 188.219273 301.84905 C 178.535681 309.635527 169.55153 315.575989 161.266821 319.667243 C 152.982111 323.761691 145.693867 326.805379 139.40528 328.801502 C 132.117036 331.097842 125.429225 332.394524 119.338654 332.694741 C 104.567343 332.694741 90.639195 330.522959 77.56379 326.182589 C 64.485192 321.839025 53.032236 315.550439 43.198535 307.313636 C 33.364834 299.080028 25.603908 288.971661 19.915755 276.994922 C 14.224409 265.01499 11.378736 251.387058 11.378736 236.114321 C 11.378736 226.631938 12.279387 217.823446 14.074301 209.685651 C 15.872408 201.55105 18.242206 194.090341 21.186886 187.300328 C 24.131567 180.51351 27.453116 174.400583 31.145145 168.958353 C 34.837175 163.519316 38.605855 158.725427 42.451186 154.583072 C 46.293324 150.440718 50.036454 146.972254 53.680577 144.177682 C 57.324699 141.38311 60.492945 139.236878 63.18851 137.738987 C 65.785067 136.241097 69.103422 134.54519 73.146769 132.648075 C 77.190116 130.75096 81.632687 128.828294 86.47129 126.883271 C 91.313086 124.935055 96.429549 123.015583 101.820678 121.118468 C 107.211807 119.221353 112.701944 117.525446 118.291089 116.027556 C 123.883427 114.529665 129.348014 113.331991 134.688042 112.434534 C 140.028071 111.533883 145.093433 111.086752 149.887322 111.086752 C 160.567379 111.086752 169.203406 111.584984 175.789015 112.581449 C 182.377818 113.581107 187.395273 114.804331 190.838187 116.251121 C 194.284293 117.697911 196.430525 119.170252 197.276881 120.668143 C 198.126431 122.166033 198.199889 123.363707 197.503641 124.261164 Z M 197.503641 124.261164 " stroke="#ffffff" stroke-width="23.000025" stroke-opacity="1" stroke-miterlimit="4"/></g><g fill="#70a659" fill-opacity="1"><g transform="translate(335.102495, 413.051789)"><g><path d="M 241.5625 -251.625 C 239.363281 -248.820312 236.675781 -246.078125 233.5 -243.390625 C 230.8125 -241.066406 227.484375 -238.625 223.515625 -236.0625 C 219.546875 -233.5 214.9375 -231.179688 209.6875 -229.109375 C 211.394531 -231.304688 211.546875 -233.65625 210.140625 -236.15625 C 208.742188 -238.65625 205.664062 -240.941406 200.90625 -243.015625 C 196.144531 -245.097656 189.703125 -246.804688 181.578125 -248.140625 C 173.460938 -249.484375 163.539062 -250.15625 151.8125 -250.15625 C 144.976562 -250.15625 137.625 -249.453125 129.75 -248.046875 C 121.875 -246.648438 114.085938 -244.242188 106.390625 -240.828125 C 98.703125 -237.410156 91.285156 -232.863281 84.140625 -227.1875 C 77.003906 -221.507812 70.6875 -214.425781 65.1875 -205.9375 C 59.695312 -197.445312 55.332031 -187.375 52.09375 -175.71875 C 48.863281 -164.0625 47.25 -150.601562 47.25 -135.34375 C 47.25 -120.082031 49.109375 -106.648438 52.828125 -95.046875 C 56.554688 -83.453125 61.503906 -73.472656 67.671875 -65.109375 C 73.835938 -56.742188 80.882812 -49.78125 88.8125 -44.21875 C 96.75 -38.664062 104.867188 -34.210938 113.171875 -30.859375 C 121.472656 -27.503906 129.625 -25.15625 137.625 -23.8125 C 145.625 -22.46875 152.859375 -21.796875 159.328125 -21.796875 C 166.773438 -21.910156 174.53125 -22.457031 182.59375 -23.4375 C 189.550781 -24.289062 197.207031 -25.539062 205.5625 -27.1875 C 213.925781 -28.84375 222.140625 -31.253906 230.203125 -34.421875 C 218.359375 -24.898438 207.367188 -17.632812 197.234375 -12.625 C 187.097656 -7.625 178.1875 -3.90625 170.5 -1.46875 C 161.582031 1.34375 153.398438 2.929688 145.953125 3.296875 C 127.890625 3.296875 110.859375 0.640625 94.859375 -4.671875 C 78.867188 -9.984375 64.859375 -17.675781 52.828125 -27.75 C 40.804688 -37.820312 31.316406 -50.179688 24.359375 -64.828125 C 17.398438 -79.484375 13.921875 -96.148438 13.921875 -114.828125 C 13.921875 -126.421875 15.019531 -137.191406 17.21875 -147.140625 C 19.414062 -157.097656 22.3125 -166.226562 25.90625 -174.53125 C 29.507812 -182.832031 33.570312 -190.304688 38.09375 -196.953125 C 42.613281 -203.609375 47.222656 -209.46875 51.921875 -214.53125 C 56.617188 -219.601562 61.195312 -223.847656 65.65625 -227.265625 C 70.113281 -230.691406 73.988281 -233.316406 77.28125 -235.140625 C 80.457031 -236.972656 84.515625 -239.050781 89.453125 -241.375 C 94.398438 -243.695312 99.832031 -246.046875 105.75 -248.421875 C 111.675781 -250.804688 117.9375 -253.15625 124.53125 -255.46875 C 131.125 -257.789062 137.835938 -259.867188 144.671875 -261.703125 C 151.515625 -263.535156 158.203125 -265 164.734375 -266.09375 C 171.265625 -267.195312 177.457031 -267.75 183.3125 -267.75 C 196.382812 -267.75 206.945312 -267.132812 215 -265.90625 C 223.0625 -264.6875 229.195312 -263.191406 233.40625 -261.421875 C 237.613281 -259.648438 240.238281 -257.847656 241.28125 -256.015625 C 242.320312 -254.191406 242.414062 -252.726562 241.5625 -251.625 Z M 241.5625 -251.625 "/></g></g></g><g clip-path="url(#a43155bfea)"><path stroke-linecap="butt" transform="matrix(0.980783, 0, 0, 0.980783, 491.027641, 138.383126)" fill="none" stroke-linejoin="miter" d="M 180.806215 169.331793 C 180.109228 176.022873 178.583821 182.184243 176.23796 187.823867 C 173.892099 193.463491 171.024494 198.605268 167.63116 203.249196 C 164.233844 207.889141 160.565699 212.031238 156.622741 215.675487 C 152.679783 219.319735 148.788602 222.51393 144.945213 225.258069 C 141.101825 228.006191 137.481473 230.300275 134.08814 232.148288 C 130.694807 233.992318 127.950667 235.418155 125.851739 236.413851 C 122.956254 237.712239 119.813836 238.859282 116.420503 239.858961 C 113.525018 240.655518 110.155581 241.404282 106.312193 242.105252 C 102.468805 242.802239 98.350605 243.053155 93.957592 242.854016 L 109.382921 235.517725 C 115.070339 235.916003 120.761739 234.442372 126.45314 231.100815 C 132.140558 227.755275 137.182764 223.063554 141.575777 217.025651 C 145.968789 210.983765 149.437796 203.846613 151.982796 195.610213 C 154.527796 187.377795 155.451802 178.516097 154.750832 169.033084 C 154.153414 161.844156 152.181935 155.483648 148.836395 149.943593 C 145.494838 144.403538 141.476207 139.735714 136.784486 135.940119 C 132.092764 132.148507 127.002764 129.253022 121.510503 127.257646 C 116.022224 125.262271 110.729102 124.262591 105.639102 124.262591 C 102.146199 124.262591 97.952326 124.386058 93.061465 124.636973 C 88.170605 124.887889 82.977052 125.262271 77.488774 125.760119 C 77.190065 144.626574 76.863476 161.469775 76.512991 176.293703 C 76.166489 191.117631 75.8399 204.244892 75.541192 215.675487 C 75.242483 227.106081 74.96767 236.987372 74.716755 245.323343 C 74.469822 253.659313 74.19501 260.720792 73.896301 266.511762 C 73.2949 280.188648 72.745276 289.472521 72.247428 294.363382 C 71.948719 296.358757 71.446888 298.405909 70.7499 300.500854 C 70.152483 302.297091 69.328046 304.244673 68.280573 306.343601 C 67.233101 308.438546 65.906833 310.485698 64.309736 312.481074 C 68.603179 312.978922 72.470464 313.253734 75.915573 313.30551 C 79.360683 313.353304 82.53098 313.381183 85.422483 313.381183 C 92.312702 313.381183 97.378805 313.178061 100.620792 312.779782 C 103.866763 312.381504 105.738672 312.082795 106.23652 311.883656 C 101.046951 314.476449 96.15609 316.874086 91.563938 319.068601 C 86.971786 321.267099 82.578774 323.210698 78.3849 324.907365 C 74.19501 326.604031 70.176379 327.930299 66.332991 328.878202 C 62.489603 329.826105 58.721888 330.300056 55.025863 330.300056 L 28.974462 330.300056 L 42.149517 321.466238 C 42.850487 318.869462 43.523578 315.774837 44.172772 312.182365 C 44.821966 308.585909 45.395487 304.718624 45.893335 300.576527 C 46.391184 296.43443 46.817342 292.140987 47.167827 287.700181 C 47.514329 283.255393 47.840918 278.89026 48.139627 274.596817 C 48.737044 264.715526 49.187099 254.232834 49.485808 243.152725 C 49.68893 227.779172 49.888069 212.907451 50.087209 198.529595 C 50.186778 192.443898 50.286348 186.15508 50.385918 179.663139 C 50.485487 173.175181 50.56116 166.81069 50.608954 160.573648 C 50.66073 154.332623 50.736403 148.446066 50.835972 142.906011 C 50.935542 137.365956 51.035112 132.447216 51.134681 128.153773 L 24.031825 131.001465 L 53.229627 113.481191 C 56.025542 113.7799 58.797561 113.955142 61.5417 114.006919 C 64.285839 114.054712 67.105652 114.078609 70.001137 114.078609 C 74.891997 114.078609 79.635495 113.907349 84.227647 113.556864 C 88.819799 113.206379 93.360174 112.8081 97.852756 112.358045 C 102.345339 111.907991 106.786145 111.485815 111.179157 111.083554 C 115.57217 110.685275 119.965182 110.486136 124.354212 110.486136 C 132.240127 110.486136 139.77954 111.832318 146.964486 114.528663 C 154.153414 117.225009 160.418335 121.116191 165.759251 126.210174 C 171.100166 131.300174 175.166591 137.489422 177.962506 144.77792 C 180.754439 152.062435 181.706325 160.247059 180.806215 169.331793 Z M 180.806215 169.331793 " stroke="#ffffff" stroke-width="23.000025" stroke-opacity="1" stroke-miterlimit="4"/></g><g fill="#70a659" fill-opacity="1"><g transform="translate(506.520954, 462.041647)"><g><path d="M 161.84375 -157.578125 C 161.15625 -151.015625 159.660156 -144.96875 157.359375 -139.4375 C 155.054688 -133.90625 152.238281 -128.863281 148.90625 -124.3125 C 145.582031 -119.757812 141.984375 -115.695312 138.109375 -112.125 C 134.242188 -108.550781 130.425781 -105.414062 126.65625 -102.71875 C 122.894531 -100.03125 119.347656 -97.78125 116.015625 -95.96875 C 112.691406 -94.15625 110 -92.757812 107.9375 -91.78125 C 105.101562 -90.507812 102.019531 -89.382812 98.6875 -88.40625 C 95.851562 -87.625 92.550781 -86.890625 88.78125 -86.203125 C 85.007812 -85.515625 80.96875 -85.269531 76.65625 -85.46875 L 91.78125 -92.671875 C 97.363281 -92.273438 102.945312 -93.71875 108.53125 -97 C 114.113281 -100.28125 119.054688 -104.878906 123.359375 -110.796875 C 127.671875 -116.722656 131.070312 -123.722656 133.5625 -131.796875 C 136.0625 -139.878906 136.96875 -148.570312 136.28125 -157.875 C 135.695312 -164.925781 133.765625 -171.164062 130.484375 -176.59375 C 127.203125 -182.03125 123.257812 -186.609375 118.65625 -190.328125 C 114.0625 -194.046875 109.070312 -196.882812 103.6875 -198.84375 C 98.300781 -200.800781 93.109375 -201.78125 88.109375 -201.78125 C 84.679688 -201.78125 80.566406 -201.65625 75.765625 -201.40625 C 70.972656 -201.164062 65.882812 -200.800781 60.5 -200.3125 C 60.207031 -181.8125 59.890625 -165.289062 59.546875 -150.75 C 59.203125 -136.207031 58.882812 -123.332031 58.59375 -112.125 C 58.300781 -100.914062 58.03125 -91.222656 57.78125 -83.046875 C 57.539062 -74.867188 57.273438 -67.941406 56.984375 -62.265625 C 56.390625 -48.847656 55.847656 -39.742188 55.359375 -34.953125 C 55.066406 -32.992188 54.578125 -30.988281 53.890625 -28.9375 C 53.304688 -27.164062 52.5 -25.253906 51.46875 -23.203125 C 50.445312 -21.148438 49.148438 -19.144531 47.578125 -17.1875 C 51.785156 -16.695312 55.578125 -16.425781 58.953125 -16.375 C 62.335938 -16.320312 65.453125 -16.296875 68.296875 -16.296875 C 75.046875 -16.296875 80.007812 -16.488281 83.1875 -16.875 C 86.375 -17.269531 88.210938 -17.566406 88.703125 -17.765625 C 83.609375 -15.222656 78.8125 -12.875 74.3125 -10.71875 C 69.8125 -8.5625 65.503906 -6.648438 61.390625 -4.984375 C 57.273438 -3.328125 53.332031 -2.03125 49.5625 -1.09375 C 45.789062 -0.164062 42.097656 0.296875 38.484375 0.296875 L 12.921875 0.296875 L 25.84375 -8.375 C 26.53125 -10.914062 27.191406 -13.945312 27.828125 -17.46875 C 28.460938 -21 29.023438 -24.796875 29.515625 -28.859375 C 30.003906 -32.921875 30.421875 -37.128906 30.765625 -41.484375 C 31.109375 -45.835938 31.425781 -50.125 31.71875 -54.34375 C 32.3125 -64.03125 32.753906 -74.304688 33.046875 -85.171875 C 33.242188 -100.253906 33.4375 -114.84375 33.625 -128.9375 C 33.726562 -134.914062 33.828125 -141.082031 33.921875 -147.4375 C 34.023438 -153.800781 34.097656 -160.039062 34.140625 -166.15625 C 34.191406 -172.28125 34.265625 -178.0625 34.359375 -183.5 C 34.460938 -188.9375 34.5625 -193.757812 34.65625 -197.96875 L 8.078125 -195.171875 L 36.71875 -212.359375 C 39.457031 -212.066406 42.171875 -211.894531 44.859375 -211.84375 C 47.554688 -211.789062 50.320312 -211.765625 53.15625 -211.765625 C 57.957031 -211.765625 62.609375 -211.9375 67.109375 -212.28125 C 71.617188 -212.625 76.078125 -213.015625 80.484375 -213.453125 C 84.890625 -213.898438 89.242188 -214.316406 93.546875 -214.703125 C 97.859375 -215.097656 102.164062 -215.296875 106.46875 -215.296875 C 114.207031 -215.296875 121.597656 -213.972656 128.640625 -211.328125 C 135.691406 -208.679688 141.835938 -204.863281 147.078125 -199.875 C 152.316406 -194.882812 156.304688 -188.8125 159.046875 -181.65625 C 161.785156 -174.507812 162.71875 -166.484375 161.84375 -157.578125 Z M 161.84375 -157.578125 "/></g></g></g><g clip-path="url(#a582728f8a)"><path fill="#1c4b08" d="M 511.542969 550.417969 C 372.714844 550.417969 259.695312 437.398438 259.695312 298.570312 C 259.695312 159.742188 372.714844 46.722656 511.542969 46.722656 C 650.367188 46.722656 763.390625 159.742188 763.390625 298.570312 C 763.390625 437.398438 650.367188 550.417969 511.542969 550.417969 Z M 511.542969 50.445312 C 374.699219 50.445312 263.414062 161.730469 263.414062 298.570312 C 263.414062 435.410156 374.699219 546.695312 511.542969 546.695312 C 648.382812 546.695312 759.667969 435.410156 759.667969 298.570312 C 759.667969 161.730469 648.382812 50.445312 511.542969 50.445312 Z M 511.542969 50.445312 " fill-opacity="1" fill-rule="nonzero"/></g><g clip-path="url(#642a1f46de)"><g clip-path="url(#fca291e566)"><path fill="#ffffff" d="M 316.085938 292.324219 L 687.09375 292.324219 L 687.09375 334.835938 L 316.085938 334.835938 Z M 316.085938 292.324219 " fill-opacity="1" fill-rule="nonzero"/></g></g><g fill="#1c4b08" fill-opacity="1"><g transform="translate(359.412208, 322.964767)"><g><path d="M 21.609375 -22.515625 C 21.421875 -22.265625 21.179688 -22.019531 20.890625 -21.78125 C 20.648438 -21.570312 20.351562 -21.351562 20 -21.125 C 19.644531 -20.894531 19.234375 -20.6875 18.765625 -20.5 C 18.921875 -20.695312 18.929688 -20.90625 18.796875 -21.125 C 18.671875 -21.351562 18.394531 -21.5625 17.96875 -21.75 C 17.550781 -21.9375 16.976562 -22.085938 16.25 -22.203125 C 15.519531 -22.328125 14.628906 -22.390625 13.578125 -22.390625 C 12.972656 -22.390625 12.316406 -22.328125 11.609375 -22.203125 C 10.898438 -22.078125 10.203125 -21.859375 9.515625 -21.546875 C 8.828125 -21.242188 8.164062 -20.835938 7.53125 -20.328125 C 6.894531 -19.816406 6.328125 -19.179688 5.828125 -18.421875 C 5.335938 -17.671875 4.945312 -16.769531 4.65625 -15.71875 C 4.375 -14.675781 4.234375 -13.472656 4.234375 -12.109375 C 4.234375 -10.742188 4.398438 -9.539062 4.734375 -8.5 C 5.066406 -7.46875 5.507812 -6.578125 6.0625 -5.828125 C 6.613281 -5.078125 7.242188 -4.453125 7.953125 -3.953125 C 8.660156 -3.460938 9.382812 -3.066406 10.125 -2.765625 C 10.863281 -2.460938 11.59375 -2.25 12.3125 -2.125 C 13.03125 -2.007812 13.675781 -1.953125 14.25 -1.953125 C 14.914062 -1.960938 15.613281 -2.007812 16.34375 -2.09375 C 16.957031 -2.175781 17.640625 -2.289062 18.390625 -2.4375 C 19.140625 -2.582031 19.875 -2.796875 20.59375 -3.078125 C 19.539062 -2.222656 18.5625 -1.570312 17.65625 -1.125 C 16.75 -0.675781 15.945312 -0.34375 15.25 -0.125 C 14.457031 0.125 13.726562 0.265625 13.0625 0.296875 C 11.445312 0.296875 9.921875 0.0625 8.484375 -0.40625 C 7.054688 -0.882812 5.800781 -1.570312 4.71875 -2.46875 C 3.644531 -3.375 2.796875 -4.484375 2.171875 -5.796875 C 1.554688 -7.109375 1.25 -8.601562 1.25 -10.28125 C 1.25 -11.3125 1.34375 -12.269531 1.53125 -13.15625 C 1.726562 -14.050781 1.988281 -14.867188 2.3125 -15.609375 C 2.632812 -16.359375 3 -17.03125 3.40625 -17.625 C 3.8125 -18.21875 4.222656 -18.738281 4.640625 -19.1875 C 5.066406 -19.644531 5.476562 -20.023438 5.875 -20.328125 C 6.269531 -20.640625 6.617188 -20.878906 6.921875 -21.046875 C 7.203125 -21.203125 7.5625 -21.382812 8 -21.59375 C 8.445312 -21.800781 8.9375 -22.007812 9.46875 -22.21875 C 10 -22.4375 10.554688 -22.648438 11.140625 -22.859375 C 11.734375 -23.066406 12.332031 -23.253906 12.9375 -23.421875 C 13.550781 -23.585938 14.148438 -23.71875 14.734375 -23.8125 C 15.328125 -23.90625 15.882812 -23.953125 16.40625 -23.953125 C 17.570312 -23.953125 18.515625 -23.894531 19.234375 -23.78125 C 19.960938 -23.675781 20.515625 -23.546875 20.890625 -23.390625 C 21.265625 -23.234375 21.5 -23.070312 21.59375 -22.90625 C 21.6875 -22.75 21.691406 -22.617188 21.609375 -22.515625 Z M 21.609375 -22.515625 "/></g></g></g><g fill="#1c4b08" fill-opacity="1"><g transform="translate(383.775873, 322.964767)"><g><path d="M 14.40625 -12.84375 C 14.300781 -12.800781 14.15625 -12.722656 13.96875 -12.609375 C 13.789062 -12.492188 13.539062 -12.328125 13.21875 -12.109375 C 12.894531 -11.898438 12.472656 -11.609375 11.953125 -11.234375 C 12.035156 -11.398438 12.03125 -11.523438 11.9375 -11.609375 C 11.84375 -11.703125 11.71875 -11.765625 11.5625 -11.796875 C 11.382812 -11.835938 11.171875 -11.851562 10.921875 -11.84375 C 10.523438 -11.8125 9.957031 -11.773438 9.21875 -11.734375 C 8.476562 -11.691406 7.644531 -11.65625 6.71875 -11.625 C 6.71875 -9.875 6.707031 -8.445312 6.6875 -7.34375 C 6.664062 -6.25 6.648438 -5.394531 6.640625 -4.78125 C 6.617188 -4.0625 6.597656 -3.535156 6.578125 -3.203125 C 6.546875 -2.984375 6.476562 -2.769531 6.375 -2.5625 C 6.289062 -2.375 6.148438 -2.175781 5.953125 -1.96875 C 5.765625 -1.757812 5.5 -1.570312 5.15625 -1.40625 L 12.59375 -1.40625 C 12.9375 -1.40625 13.289062 -1.425781 13.65625 -1.46875 C 13.957031 -1.507812 14.28125 -1.566406 14.625 -1.640625 C 14.976562 -1.710938 15.316406 -1.828125 15.640625 -1.984375 C 15.085938 -1.472656 14.539062 -1.078125 14 -0.796875 C 13.46875 -0.523438 12.976562 -0.332031 12.53125 -0.21875 C 12.007812 -0.0703125 11.515625 0.0078125 11.046875 0.03125 C 9.972656 0.03125 8.960938 0.0351562 8.015625 0.046875 C 7.066406 0.0546875 6.207031 0.078125 5.4375 0.109375 C 4.675781 0.140625 4.023438 0.179688 3.484375 0.234375 C 2.941406 0.285156 2.550781 0.34375 2.3125 0.40625 C 2.644531 0.0703125 2.90625 -0.253906 3.09375 -0.578125 C 3.289062 -0.910156 3.4375 -1.28125 3.53125 -1.6875 C 3.632812 -2.09375 3.695312 -2.546875 3.71875 -3.046875 C 3.75 -3.554688 3.757812 -4.164062 3.75 -4.875 L 3.75 -11.59375 C 3.4375 -11.59375 3.128906 -11.597656 2.828125 -11.609375 C 2.523438 -11.617188 2.234375 -11.632812 1.953125 -11.65625 L 3.75 -12.59375 C 3.75 -13.175781 3.742188 -13.789062 3.734375 -14.4375 C 3.734375 -15.09375 3.734375 -15.789062 3.734375 -16.53125 C 3.734375 -17.28125 3.726562 -18.082031 3.71875 -18.9375 C 3.71875 -19.789062 3.71875 -20.726562 3.71875 -21.75 C 3.226562 -21.75 2.765625 -21.753906 2.328125 -21.765625 C 1.890625 -21.773438 1.484375 -21.789062 1.109375 -21.8125 L 4.15625 -23.4375 C 6.238281 -23.4375 8.015625 -23.445312 9.484375 -23.46875 C 10.953125 -23.5 12.164062 -23.53125 13.125 -23.5625 C 14.238281 -23.601562 15.164062 -23.648438 15.90625 -23.703125 C 16.28125 -23.703125 16.523438 -23.671875 16.640625 -23.609375 C 16.765625 -23.546875 16.816406 -23.476562 16.796875 -23.40625 C 16.773438 -23.332031 16.707031 -23.257812 16.59375 -23.1875 C 16.488281 -23.113281 16.394531 -23.0625 16.3125 -23.03125 C 16.21875 -22.976562 16.050781 -22.882812 15.8125 -22.75 C 15.601562 -22.625 15.3125 -22.429688 14.9375 -22.171875 C 14.5625 -21.921875 14.046875 -21.578125 13.390625 -21.140625 C 13.609375 -21.378906 13.703125 -21.554688 13.671875 -21.671875 C 13.640625 -21.785156 13.5625 -21.867188 13.4375 -21.921875 C 13.289062 -21.984375 13.09375 -22.015625 12.84375 -22.015625 C 12.632812 -21.984375 12.320312 -21.957031 11.90625 -21.9375 C 11.5 -21.925781 11.019531 -21.910156 10.46875 -21.890625 C 9.914062 -21.867188 9.316406 -21.847656 8.671875 -21.828125 C 8.023438 -21.804688 7.363281 -21.789062 6.6875 -21.78125 C 6.695312 -20.03125 6.703125 -18.460938 6.703125 -17.078125 C 6.710938 -15.691406 6.71875 -14.421875 6.71875 -13.265625 C 7.832031 -13.273438 8.832031 -13.289062 9.71875 -13.3125 C 10.613281 -13.34375 11.378906 -13.375 12.015625 -13.40625 C 12.753906 -13.445312 13.414062 -13.484375 14 -13.515625 C 14.351562 -13.523438 14.585938 -13.503906 14.703125 -13.453125 C 14.828125 -13.398438 14.878906 -13.332031 14.859375 -13.25 C 14.835938 -13.175781 14.773438 -13.097656 14.671875 -13.015625 C 14.566406 -12.929688 14.476562 -12.875 14.40625 -12.84375 Z M 14.40625 -12.84375 "/></g></g></g><g fill="#1c4b08" fill-opacity="1"><g transform="translate(403.452362, 322.964767)"><g><path d="M 20.8125 -22.890625 C 20.6875 -22.828125 20.5 -22.722656 20.25 -22.578125 C 20.03125 -22.460938 19.734375 -22.289062 19.359375 -22.0625 C 18.984375 -21.84375 18.492188 -21.554688 17.890625 -21.203125 C 18.078125 -21.441406 18.160156 -21.613281 18.140625 -21.71875 C 18.128906 -21.820312 18.082031 -21.890625 18 -21.921875 C 17.882812 -21.972656 17.734375 -21.976562 17.546875 -21.9375 C 17.441406 -21.914062 17.207031 -21.890625 16.84375 -21.859375 C 16.488281 -21.835938 16.039062 -21.816406 15.5 -21.796875 C 14.957031 -21.773438 14.34375 -21.753906 13.65625 -21.734375 C 12.96875 -21.710938 12.238281 -21.695312 11.46875 -21.6875 C 11.425781 -19.851562 11.390625 -18.21875 11.359375 -16.78125 C 11.328125 -15.34375 11.296875 -14.066406 11.265625 -12.953125 C 11.234375 -11.835938 11.207031 -10.867188 11.1875 -10.046875 C 11.175781 -9.222656 11.164062 -8.523438 11.15625 -7.953125 C 11.125 -6.597656 11.109375 -5.65625 11.109375 -5.125 C 11.097656 -4.71875 11.046875 -4.320312 10.953125 -3.9375 C 10.859375 -3.59375 10.722656 -3.226562 10.546875 -2.84375 C 10.378906 -2.457031 10.128906 -2.101562 9.796875 -1.78125 C 10.003906 -1.757812 10.203125 -1.742188 10.390625 -1.734375 C 10.578125 -1.734375 10.765625 -1.734375 10.953125 -1.734375 C 11.460938 -1.734375 11.921875 -1.757812 12.328125 -1.8125 C 12.742188 -1.863281 13.097656 -1.914062 13.390625 -1.96875 C 13.679688 -2.019531 13.914062 -2.070312 14.09375 -2.125 C 14.28125 -2.1875 14.394531 -2.226562 14.4375 -2.25 C 13.851562 -1.851562 13.367188 -1.507812 12.984375 -1.21875 C 12.609375 -0.9375 12.265625 -0.707031 11.953125 -0.53125 C 11.648438 -0.351562 11.351562 -0.21875 11.0625 -0.125 C 10.769531 -0.0390625 10.425781 0 10.03125 0 C 9.507812 0 9.0625 -0.0195312 8.6875 -0.0625 C 8.320312 -0.101562 7.957031 -0.125 7.59375 -0.125 C 7.40625 -0.125 7.210938 -0.113281 7.015625 -0.09375 C 6.828125 -0.0820312 6.613281 -0.0507812 6.375 0 C 6.675781 -0.257812 6.957031 -0.546875 7.21875 -0.859375 C 7.476562 -1.171875 7.691406 -1.550781 7.859375 -2 C 8.035156 -2.445312 8.171875 -2.984375 8.265625 -3.609375 C 8.367188 -4.234375 8.421875 -4.984375 8.421875 -5.859375 L 8.421875 -21.578125 C 7.472656 -21.554688 6.539062 -21.535156 5.625 -21.515625 C 4.71875 -21.492188 3.894531 -21.472656 3.15625 -21.453125 C 2.425781 -21.441406 1.8125 -21.425781 1.3125 -21.40625 C 0.820312 -21.382812 0.507812 -21.367188 0.375 -21.359375 C 0.0703125 -21.316406 -0.140625 -21.320312 -0.265625 -21.375 C -0.398438 -21.4375 -0.460938 -21.523438 -0.453125 -21.640625 C -0.441406 -21.753906 -0.363281 -21.890625 -0.21875 -22.046875 C -0.0703125 -22.210938 0.125 -22.390625 0.375 -22.578125 L 2.625 -24.203125 C 2.457031 -24.003906 2.40625 -23.851562 2.46875 -23.75 C 2.53125 -23.65625 2.625 -23.582031 2.75 -23.53125 C 2.90625 -23.476562 3.109375 -23.445312 3.359375 -23.4375 C 3.535156 -23.4375 3.890625 -23.441406 4.421875 -23.453125 C 4.960938 -23.460938 5.613281 -23.472656 6.375 -23.484375 C 7.144531 -23.503906 8 -23.519531 8.9375 -23.53125 C 9.882812 -23.550781 10.84375 -23.570312 11.8125 -23.59375 C 12.789062 -23.625 13.75 -23.648438 14.6875 -23.671875 C 15.625 -23.703125 16.476562 -23.722656 17.25 -23.734375 C 18.019531 -23.753906 18.671875 -23.769531 19.203125 -23.78125 C 19.742188 -23.800781 20.097656 -23.816406 20.265625 -23.828125 C 20.609375 -23.835938 20.851562 -23.804688 21 -23.734375 C 21.15625 -23.671875 21.238281 -23.582031 21.25 -23.46875 C 21.269531 -23.363281 21.234375 -23.257812 21.140625 -23.15625 C 21.054688 -23.050781 20.945312 -22.960938 20.8125 -22.890625 Z M 14.4375 -2.25 L 14.4375 -2.265625 C 14.445312 -2.273438 14.457031 -2.28125 14.46875 -2.28125 Z M 14.4375 -2.25 "/></g></g></g><g fill="#1c4b08" fill-opacity="1"><g transform="translate(426.439374, 322.964767)"><g><path d="M 14.40625 -12.84375 C 14.300781 -12.800781 14.15625 -12.722656 13.96875 -12.609375 C 13.789062 -12.492188 13.539062 -12.328125 13.21875 -12.109375 C 12.894531 -11.898438 12.472656 -11.609375 11.953125 -11.234375 C 12.035156 -11.398438 12.03125 -11.523438 11.9375 -11.609375 C 11.84375 -11.703125 11.71875 -11.765625 11.5625 -11.796875 C 11.382812 -11.835938 11.171875 -11.851562 10.921875 -11.84375 C 10.523438 -11.8125 9.957031 -11.773438 9.21875 -11.734375 C 8.476562 -11.691406 7.644531 -11.65625 6.71875 -11.625 C 6.71875 -9.875 6.707031 -8.445312 6.6875 -7.34375 C 6.664062 -6.25 6.648438 -5.394531 6.640625 -4.78125 C 6.617188 -4.0625 6.597656 -3.535156 6.578125 -3.203125 C 6.546875 -2.984375 6.476562 -2.769531 6.375 -2.5625 C 6.289062 -2.375 6.148438 -2.175781 5.953125 -1.96875 C 5.765625 -1.757812 5.5 -1.570312 5.15625 -1.40625 L 12.59375 -1.40625 C 12.9375 -1.40625 13.289062 -1.425781 13.65625 -1.46875 C 13.957031 -1.507812 14.28125 -1.566406 14.625 -1.640625 C 14.976562 -1.710938 15.316406 -1.828125 15.640625 -1.984375 C 15.085938 -1.472656 14.539062 -1.078125 14 -0.796875 C 13.46875 -0.523438 12.976562 -0.332031 12.53125 -0.21875 C 12.007812 -0.0703125 11.515625 0.0078125 11.046875 0.03125 C 9.972656 0.03125 8.960938 0.0351562 8.015625 0.046875 C 7.066406 0.0546875 6.207031 0.078125 5.4375 0.109375 C 4.675781 0.140625 4.023438 0.179688 3.484375 0.234375 C 2.941406 0.285156 2.550781 0.34375 2.3125 0.40625 C 2.644531 0.0703125 2.90625 -0.253906 3.09375 -0.578125 C 3.289062 -0.910156 3.4375 -1.28125 3.53125 -1.6875 C 3.632812 -2.09375 3.695312 -2.546875 3.71875 -3.046875 C 3.75 -3.554688 3.757812 -4.164062 3.75 -4.875 L 3.75 -11.59375 C 3.4375 -11.59375 3.128906 -11.597656 2.828125 -11.609375 C 2.523438 -11.617188 2.234375 -11.632812 1.953125 -11.65625 L 3.75 -12.59375 C 3.75 -13.175781 3.742188 -13.789062 3.734375 -14.4375 C 3.734375 -15.09375 3.734375 -15.789062 3.734375 -16.53125 C 3.734375 -17.28125 3.726562 -18.082031 3.71875 -18.9375 C 3.71875 -19.789062 3.71875 -20.726562 3.71875 -21.75 C 3.226562 -21.75 2.765625 -21.753906 2.328125 -21.765625 C 1.890625 -21.773438 1.484375 -21.789062 1.109375 -21.8125 L 4.15625 -23.4375 C 6.238281 -23.4375 8.015625 -23.445312 9.484375 -23.46875 C 10.953125 -23.5 12.164062 -23.53125 13.125 -23.5625 C 14.238281 -23.601562 15.164062 -23.648438 15.90625 -23.703125 C 16.28125 -23.703125 16.523438 -23.671875 16.640625 -23.609375 C 16.765625 -23.546875 16.816406 -23.476562 16.796875 -23.40625 C 16.773438 -23.332031 16.707031 -23.257812 16.59375 -23.1875 C 16.488281 -23.113281 16.394531 -23.0625 16.3125 -23.03125 C 16.21875 -22.976562 16.050781 -22.882812 15.8125 -22.75 C 15.601562 -22.625 15.3125 -22.429688 14.9375 -22.171875 C 14.5625 -21.921875 14.046875 -21.578125 13.390625 -21.140625 C 13.609375 -21.378906 13.703125 -21.554688 13.671875 -21.671875 C 13.640625 -21.785156 13.5625 -21.867188 13.4375 -21.921875 C 13.289062 -21.984375 13.09375 -22.015625 12.84375 -22.015625 C 12.632812 -21.984375 12.320312 -21.957031 11.90625 -21.9375 C 11.5 -21.925781 11.019531 -21.910156 10.46875 -21.890625 C 9.914062 -21.867188 9.316406 -21.847656 8.671875 -21.828125 C 8.023438 -21.804688 7.363281 -21.789062 6.6875 -21.78125 C 6.695312 -20.03125 6.703125 -18.460938 6.703125 -17.078125 C 6.710938 -15.691406 6.71875 -14.421875 6.71875 -13.265625 C 7.832031 -13.273438 8.832031 -13.289062 9.71875 -13.3125 C 10.613281 -13.34375 11.378906 -13.375 12.015625 -13.40625 C 12.753906 -13.445312 13.414062 -13.484375 14 -13.515625 C 14.351562 -13.523438 14.585938 -13.503906 14.703125 -13.453125 C 14.828125 -13.398438 14.878906 -13.332031 14.859375 -13.25 C 14.835938 -13.175781 14.773438 -13.097656 14.671875 -13.015625 C 14.566406 -12.929688 14.476562 -12.875 14.40625 -12.84375 Z M 14.40625 -12.84375 "/></g></g></g><g fill="#1c4b08" fill-opacity="1"><g transform="translate(446.115863, 322.964767)"><g><path d="M 17.484375 -17.578125 C 17.398438 -16.765625 17.179688 -16.046875 16.828125 -15.421875 C 16.484375 -14.804688 16.0625 -14.265625 15.5625 -13.796875 C 15.070312 -13.328125 14.546875 -12.929688 13.984375 -12.609375 C 13.421875 -12.285156 12.890625 -12.007812 12.390625 -11.78125 C 13.347656 -10.738281 14.210938 -9.8125 14.984375 -9 C 15.753906 -8.195312 16.4375 -7.484375 17.03125 -6.859375 C 17.632812 -6.242188 18.15625 -5.707031 18.59375 -5.25 C 19.039062 -4.800781 19.425781 -4.421875 19.75 -4.109375 C 20.488281 -3.378906 21.003906 -2.894531 21.296875 -2.65625 C 21.609375 -2.414062 21.941406 -2.25 22.296875 -2.15625 C 22.660156 -2.0625 23.015625 -2.015625 23.359375 -2.015625 C 23.640625 -2.015625 23.910156 -2.039062 24.171875 -2.09375 C 24.429688 -2.144531 24.640625 -2.207031 24.796875 -2.28125 C 24.273438 -1.925781 23.8125 -1.609375 23.40625 -1.328125 C 23.007812 -1.046875 22.644531 -0.800781 22.3125 -0.59375 C 21.976562 -0.394531 21.660156 -0.238281 21.359375 -0.125 C 21.054688 -0.0195312 20.75 0.03125 20.4375 0.03125 C 20.21875 0.03125 20 0 19.78125 -0.0625 C 19.570312 -0.125 19.347656 -0.226562 19.109375 -0.375 C 18.878906 -0.519531 18.628906 -0.703125 18.359375 -0.921875 C 18.097656 -1.140625 17.804688 -1.398438 17.484375 -1.703125 C 17.273438 -1.910156 16.960938 -2.242188 16.546875 -2.703125 C 16.128906 -3.171875 15.664062 -3.691406 15.15625 -4.265625 C 14.644531 -4.835938 14.109375 -5.4375 13.546875 -6.0625 C 12.992188 -6.6875 12.46875 -7.265625 11.96875 -7.796875 C 11.476562 -8.328125 11.046875 -8.78125 10.671875 -9.15625 C 10.296875 -9.539062 10.035156 -9.773438 9.890625 -9.859375 C 9.734375 -9.960938 9.5625 -10.050781 9.375 -10.125 C 9.21875 -10.1875 9.035156 -10.242188 8.828125 -10.296875 C 8.628906 -10.347656 8.441406 -10.363281 8.265625 -10.34375 L 10.640625 -11.984375 C 11.179688 -11.984375 11.703125 -12.109375 12.203125 -12.359375 C 12.703125 -12.609375 13.132812 -12.972656 13.5 -13.453125 C 13.863281 -13.941406 14.148438 -14.535156 14.359375 -15.234375 C 14.566406 -15.941406 14.648438 -16.734375 14.609375 -17.609375 C 14.578125 -18.140625 14.457031 -18.617188 14.25 -19.046875 C 14.039062 -19.484375 13.769531 -19.867188 13.4375 -20.203125 C 13.101562 -20.546875 12.722656 -20.84375 12.296875 -21.09375 C 11.867188 -21.34375 11.429688 -21.550781 10.984375 -21.71875 C 10.535156 -21.882812 10.085938 -22.007812 9.640625 -22.09375 C 9.203125 -22.175781 8.796875 -22.21875 8.421875 -22.21875 C 8.171875 -22.21875 7.894531 -22.210938 7.59375 -22.203125 C 7.300781 -22.191406 7.007812 -22.1875 6.71875 -22.1875 C 6.6875 -20.144531 6.648438 -18.320312 6.609375 -16.71875 C 6.578125 -15.113281 6.539062 -13.6875 6.5 -12.4375 C 6.46875 -11.1875 6.4375 -10.109375 6.40625 -9.203125 C 6.382812 -8.304688 6.359375 -7.546875 6.328125 -6.921875 C 6.265625 -5.429688 6.203125 -4.425781 6.140625 -3.90625 C 6.109375 -3.6875 6.054688 -3.460938 5.984375 -3.234375 C 5.921875 -3.035156 5.832031 -2.820312 5.71875 -2.59375 C 5.601562 -2.363281 5.457031 -2.140625 5.28125 -1.921875 C 5.75 -1.859375 6.171875 -1.820312 6.546875 -1.8125 C 6.921875 -1.8125 7.269531 -1.8125 7.59375 -1.8125 C 8.34375 -1.8125 8.894531 -1.832031 9.25 -1.875 C 9.601562 -1.925781 9.804688 -1.960938 9.859375 -1.984375 C 9.296875 -1.703125 8.757812 -1.4375 8.25 -1.1875 C 7.75 -0.945312 7.269531 -0.734375 6.8125 -0.546875 C 6.351562 -0.367188 5.914062 -0.226562 5.5 -0.125 C 5.082031 -0.0195312 4.671875 0.03125 4.265625 0.03125 L 1.40625 0.03125 L 2.84375 -0.9375 C 2.925781 -1.21875 3 -1.554688 3.0625 -1.953125 C 3.132812 -2.347656 3.195312 -2.769531 3.25 -3.21875 C 3.3125 -3.675781 3.359375 -4.144531 3.390625 -4.625 C 3.429688 -5.113281 3.46875 -5.59375 3.5 -6.0625 C 3.570312 -7.144531 3.625 -8.289062 3.65625 -9.5 C 3.675781 -11.175781 3.695312 -12.796875 3.71875 -14.359375 C 3.726562 -15.023438 3.738281 -15.707031 3.75 -16.40625 C 3.757812 -17.113281 3.765625 -17.800781 3.765625 -18.46875 C 3.773438 -19.144531 3.785156 -19.785156 3.796875 -20.390625 C 3.804688 -20.992188 3.8125 -21.535156 3.8125 -22.015625 L 0.875 -21.78125 L 4.0625 -23.703125 C 4.25 -23.660156 4.453125 -23.632812 4.671875 -23.625 C 4.898438 -23.625 5.132812 -23.625 5.375 -23.625 C 5.84375 -23.625 6.304688 -23.644531 6.765625 -23.6875 C 7.222656 -23.726562 7.675781 -23.769531 8.125 -23.8125 C 8.582031 -23.863281 9.03125 -23.910156 9.46875 -23.953125 C 9.90625 -24.003906 10.347656 -24.03125 10.796875 -24.03125 C 11.671875 -24.03125 12.53125 -23.878906 13.375 -23.578125 C 14.21875 -23.285156 14.957031 -22.859375 15.59375 -22.296875 C 16.226562 -21.742188 16.726562 -21.066406 17.09375 -20.265625 C 17.457031 -19.472656 17.585938 -18.578125 17.484375 -17.578125 Z M 24.84375 -2.3125 C 24.820312 -2.300781 24.8125 -2.296875 24.8125 -2.296875 L 24.796875 -2.296875 L 24.796875 -2.28125 L 24.796875 -2.296875 L 24.8125 -2.296875 C 24.820312 -2.304688 24.832031 -2.3125 24.84375 -2.3125 Z M 24.84375 -2.3125 "/></g></g></g><g fill="#1c4b08" fill-opacity="1"><g transform="translate(471.249798, 322.964767)"><g><path d="M 9.890625 -2.109375 C 9.304688 -1.722656 8.820312 -1.382812 8.4375 -1.09375 C 8.050781 -0.8125 7.703125 -0.578125 7.390625 -0.390625 C 7.085938 -0.210938 6.789062 -0.0820312 6.5 0 C 6.207031 0.0820312 5.863281 0.125 5.46875 0.125 C 4.945312 0.125 4.5 0.101562 4.125 0.0625 C 3.757812 0.0195312 3.390625 0 3.015625 0 C 2.828125 0 2.632812 0.00390625 2.4375 0.015625 C 2.25 0.0351562 2.039062 0.0703125 1.8125 0.125 C 2.125 -0.132812 2.40625 -0.414062 2.65625 -0.71875 C 2.90625 -1.03125 3.117188 -1.410156 3.296875 -1.859375 C 3.484375 -2.304688 3.625 -2.84375 3.71875 -3.46875 C 3.820312 -4.09375 3.875 -4.847656 3.875 -5.734375 L 3.875 -22.28125 C 3.53125 -22.25 3.117188 -22.207031 2.640625 -22.15625 C 2.160156 -22.101562 1.613281 -22.03125 1 -21.9375 C 1.59375 -22.425781 2.125 -22.796875 2.59375 -23.046875 C 3.070312 -23.296875 3.476562 -23.476562 3.8125 -23.59375 C 4.207031 -23.726562 4.5625 -23.804688 4.875 -23.828125 C 5.25 -23.816406 5.664062 -23.820312 6.125 -23.84375 C 6.59375 -23.863281 7.039062 -23.890625 7.46875 -23.921875 C 7.90625 -23.960938 8.300781 -24.015625 8.65625 -24.078125 C 9.019531 -24.140625 9.289062 -24.203125 9.46875 -24.265625 C 8.957031 -23.929688 8.492188 -23.644531 8.078125 -23.40625 C 7.671875 -23.175781 7.285156 -22.984375 6.921875 -22.828125 C 6.859375 -20.847656 6.804688 -19.078125 6.765625 -17.515625 C 6.734375 -15.953125 6.703125 -14.566406 6.671875 -13.359375 C 6.648438 -12.148438 6.628906 -11.109375 6.609375 -10.234375 C 6.597656 -9.359375 6.585938 -8.609375 6.578125 -7.984375 C 6.535156 -6.523438 6.519531 -5.53125 6.53125 -5 C 6.519531 -4.59375 6.46875 -4.191406 6.375 -3.796875 C 6.289062 -3.453125 6.160156 -3.082031 5.984375 -2.6875 C 5.804688 -2.300781 5.554688 -1.953125 5.234375 -1.640625 C 5.441406 -1.617188 5.640625 -1.609375 5.828125 -1.609375 C 6.023438 -1.609375 6.21875 -1.609375 6.40625 -1.609375 C 6.96875 -1.609375 7.460938 -1.628906 7.890625 -1.671875 C 8.316406 -1.722656 8.679688 -1.785156 8.984375 -1.859375 C 9.328125 -1.929688 9.628906 -2.015625 9.890625 -2.109375 Z M 9.890625 -2.109375 "/></g></g></g><g fill="#1c4b08" fill-opacity="1"><g transform="translate(484.239688, 322.964767)"><g><path d="M 15.59375 -6.921875 C 15.59375 -6.359375 15.410156 -5.78125 15.046875 -5.1875 C 14.691406 -4.601562 14.222656 -4.035156 13.640625 -3.484375 C 13.054688 -2.929688 12.398438 -2.410156 11.671875 -1.921875 C 10.953125 -1.429688 10.222656 -0.992188 9.484375 -0.609375 C 8.742188 -0.234375 8.035156 0.0625 7.359375 0.28125 C 6.679688 0.507812 6.109375 0.628906 5.640625 0.640625 C 5.191406 0.660156 4.707031 0.617188 4.1875 0.515625 C 3.675781 0.421875 3.1875 0.300781 2.71875 0.15625 C 2.257812 0.0078125 1.847656 -0.144531 1.484375 -0.3125 C 1.117188 -0.488281 0.867188 -0.640625 0.734375 -0.765625 C 0.660156 -0.859375 0.597656 -0.957031 0.546875 -1.0625 C 0.492188 -1.164062 0.46875 -1.28125 0.46875 -1.40625 C 0.46875 -1.53125 0.503906 -1.660156 0.578125 -1.796875 C 0.648438 -1.929688 0.769531 -2.070312 0.9375 -2.21875 C 1.082031 -2.332031 1.269531 -2.484375 1.5 -2.671875 C 1.695312 -2.828125 1.945312 -3.023438 2.25 -3.265625 C 2.5625 -3.515625 2.941406 -3.8125 3.390625 -4.15625 C 3.222656 -4 3.117188 -3.847656 3.078125 -3.703125 C 3.035156 -3.554688 3.019531 -3.425781 3.03125 -3.3125 C 3.039062 -3.175781 3.082031 -3.054688 3.15625 -2.953125 C 3.269531 -2.804688 3.460938 -2.644531 3.734375 -2.46875 C 4.003906 -2.300781 4.332031 -2.140625 4.71875 -1.984375 C 5.113281 -1.835938 5.550781 -1.710938 6.03125 -1.609375 C 6.519531 -1.515625 7.03125 -1.46875 7.5625 -1.46875 C 8.195312 -1.46875 8.832031 -1.53125 9.46875 -1.65625 C 10.101562 -1.789062 10.675781 -2.003906 11.1875 -2.296875 C 11.695312 -2.585938 12.101562 -2.976562 12.40625 -3.46875 C 12.71875 -3.957031 12.875 -4.5625 12.875 -5.28125 C 12.875 -5.945312 12.71875 -6.53125 12.40625 -7.03125 C 12.101562 -7.539062 11.695312 -8 11.1875 -8.40625 C 10.6875 -8.8125 10.109375 -9.179688 9.453125 -9.515625 C 8.804688 -9.847656 8.144531 -10.175781 7.46875 -10.5 C 6.800781 -10.832031 6.140625 -11.164062 5.484375 -11.5 C 4.835938 -11.84375 4.265625 -12.222656 3.765625 -12.640625 C 3.265625 -13.066406 2.859375 -13.539062 2.546875 -14.0625 C 2.234375 -14.59375 2.078125 -15.207031 2.078125 -15.90625 C 2.078125 -16.582031 2.242188 -17.242188 2.578125 -17.890625 C 2.910156 -18.546875 3.347656 -19.160156 3.890625 -19.734375 C 4.441406 -20.304688 5.066406 -20.835938 5.765625 -21.328125 C 6.472656 -21.828125 7.195312 -22.253906 7.9375 -22.609375 C 8.6875 -22.960938 9.414062 -23.238281 10.125 -23.4375 C 10.84375 -23.644531 11.492188 -23.753906 12.078125 -23.765625 C 12.628906 -23.773438 13.160156 -23.75 13.671875 -23.6875 C 14.191406 -23.625 14.625 -23.53125 14.96875 -23.40625 C 15.320312 -23.289062 15.5625 -23.144531 15.6875 -22.96875 C 15.820312 -22.789062 15.789062 -22.585938 15.59375 -22.359375 C 15.4375 -22.171875 15.238281 -21.972656 15 -21.765625 C 14.78125 -21.578125 14.507812 -21.367188 14.1875 -21.140625 C 13.875 -20.910156 13.488281 -20.664062 13.03125 -20.40625 C 13.113281 -20.53125 13.160156 -20.644531 13.171875 -20.75 C 13.179688 -20.851562 13.175781 -20.941406 13.15625 -21.015625 C 13.125 -21.085938 13.082031 -21.148438 13.03125 -21.203125 C 12.945312 -21.265625 12.8125 -21.332031 12.625 -21.40625 C 12.4375 -21.488281 12.195312 -21.566406 11.90625 -21.640625 C 11.625 -21.722656 11.300781 -21.785156 10.9375 -21.828125 C 10.582031 -21.878906 10.203125 -21.90625 9.796875 -21.90625 C 9.140625 -21.90625 8.507812 -21.828125 7.90625 -21.671875 C 7.300781 -21.515625 6.765625 -21.269531 6.296875 -20.9375 C 5.835938 -20.613281 5.46875 -20.195312 5.1875 -19.6875 C 4.90625 -19.1875 4.765625 -18.597656 4.765625 -17.921875 C 4.765625 -17.179688 4.921875 -16.53125 5.234375 -15.96875 C 5.546875 -15.414062 5.957031 -14.921875 6.46875 -14.484375 C 6.976562 -14.054688 7.554688 -13.664062 8.203125 -13.3125 C 8.847656 -12.96875 9.503906 -12.632812 10.171875 -12.3125 C 10.847656 -11.988281 11.507812 -11.65625 12.15625 -11.3125 C 12.8125 -10.976562 13.394531 -10.601562 13.90625 -10.1875 C 14.414062 -9.78125 14.820312 -9.3125 15.125 -8.78125 C 15.4375 -8.25 15.59375 -7.628906 15.59375 -6.921875 Z M 15.59375 -6.921875 "/></g></g></g><g fill="#1c4b08" fill-opacity="1"><g transform="translate(503.637569, 322.964767)"><g/></g></g><g fill="#1c4b08" fill-opacity="1"><g transform="translate(514.513313, 322.964767)"><g><path d="M 18.0625 -17.578125 C 17.976562 -16.847656 17.804688 -16.175781 17.546875 -15.5625 C 17.296875 -14.945312 16.984375 -14.382812 16.609375 -13.875 C 16.242188 -13.363281 15.84375 -12.90625 15.40625 -12.5 C 14.976562 -12.101562 14.550781 -11.753906 14.125 -11.453125 C 13.707031 -11.160156 13.3125 -10.910156 12.9375 -10.703125 C 12.570312 -10.503906 12.273438 -10.351562 12.046875 -10.25 C 11.722656 -10.101562 11.378906 -9.972656 11.015625 -9.859375 C 10.691406 -9.773438 10.320312 -9.691406 9.90625 -9.609375 C 9.488281 -9.535156 9.035156 -9.507812 8.546875 -9.53125 L 10.25 -10.34375 C 10.863281 -10.300781 11.484375 -10.460938 12.109375 -10.828125 C 12.734375 -11.191406 13.285156 -11.703125 13.765625 -12.359375 C 14.242188 -13.023438 14.625 -13.804688 14.90625 -14.703125 C 15.1875 -15.609375 15.285156 -16.578125 15.203125 -17.609375 C 15.140625 -18.398438 14.925781 -19.097656 14.5625 -19.703125 C 14.195312 -20.304688 13.753906 -20.816406 13.234375 -21.234375 C 12.722656 -21.648438 12.164062 -21.96875 11.5625 -22.1875 C 10.96875 -22.40625 10.390625 -22.515625 9.828125 -22.515625 C 9.453125 -22.515625 8.992188 -22.5 8.453125 -22.46875 C 7.921875 -22.445312 7.351562 -22.410156 6.75 -22.359375 C 6.71875 -20.285156 6.679688 -18.4375 6.640625 -16.8125 C 6.609375 -15.195312 6.570312 -13.765625 6.53125 -12.515625 C 6.5 -11.265625 6.46875 -10.179688 6.4375 -9.265625 C 6.414062 -8.359375 6.390625 -7.585938 6.359375 -6.953125 C 6.296875 -5.453125 6.234375 -4.4375 6.171875 -3.90625 C 6.140625 -3.6875 6.085938 -3.460938 6.015625 -3.234375 C 5.953125 -3.035156 5.863281 -2.820312 5.75 -2.59375 C 5.632812 -2.363281 5.488281 -2.140625 5.3125 -1.921875 C 5.78125 -1.859375 6.203125 -1.820312 6.578125 -1.8125 C 6.953125 -1.8125 7.300781 -1.8125 7.625 -1.8125 C 8.375 -1.8125 8.925781 -1.832031 9.28125 -1.875 C 9.632812 -1.925781 9.835938 -1.960938 9.890625 -1.984375 C 9.328125 -1.703125 8.789062 -1.4375 8.28125 -1.1875 C 7.78125 -0.945312 7.300781 -0.734375 6.84375 -0.546875 C 6.382812 -0.367188 5.945312 -0.226562 5.53125 -0.125 C 5.113281 -0.0195312 4.703125 0.03125 4.296875 0.03125 L 1.4375 0.03125 L 2.890625 -0.9375 C 2.960938 -1.21875 3.035156 -1.554688 3.109375 -1.953125 C 3.179688 -2.347656 3.242188 -2.769531 3.296875 -3.21875 C 3.347656 -3.675781 3.390625 -4.144531 3.421875 -4.625 C 3.460938 -5.113281 3.503906 -5.59375 3.546875 -6.0625 C 3.609375 -7.144531 3.65625 -8.289062 3.6875 -9.5 C 3.707031 -11.1875 3.726562 -12.816406 3.75 -14.390625 C 3.757812 -15.054688 3.769531 -15.742188 3.78125 -16.453125 C 3.789062 -17.160156 3.796875 -17.851562 3.796875 -18.53125 C 3.804688 -19.21875 3.816406 -19.863281 3.828125 -20.46875 C 3.835938 -21.082031 3.851562 -21.625 3.875 -22.09375 L 0.90625 -21.78125 L 4.09375 -23.703125 C 4.40625 -23.660156 4.707031 -23.632812 5 -23.625 C 5.300781 -23.625 5.613281 -23.625 5.9375 -23.625 C 6.46875 -23.625 6.984375 -23.644531 7.484375 -23.6875 C 7.992188 -23.726562 8.492188 -23.769531 8.984375 -23.8125 C 9.472656 -23.863281 9.957031 -23.910156 10.4375 -23.953125 C 10.914062 -24.003906 11.394531 -24.03125 11.875 -24.03125 C 12.738281 -24.03125 13.5625 -23.878906 14.34375 -23.578125 C 15.132812 -23.285156 15.820312 -22.859375 16.40625 -22.296875 C 17 -21.742188 17.445312 -21.066406 17.75 -20.265625 C 18.050781 -19.472656 18.15625 -18.578125 18.0625 -17.578125 Z M 18.0625 -17.578125 "/></g></g></g><g fill="#1c4b08" fill-opacity="1"><g transform="translate(535.418966, 322.964767)"><g><path d="M 6.53125 -1.703125 C 5.957031 -1.378906 5.40625 -1.109375 4.875 -0.890625 C 4.34375 -0.671875 3.847656 -0.492188 3.390625 -0.359375 C 2.929688 -0.222656 2.519531 -0.128906 2.15625 -0.078125 C 1.789062 -0.0234375 1.476562 0 1.21875 0 L -1.25 0 L 0.546875 -1 C 0.722656 -1.238281 0.898438 -1.476562 1.078125 -1.71875 C 1.253906 -1.957031 1.40625 -2.179688 1.53125 -2.390625 C 1.664062 -2.617188 1.796875 -2.847656 1.921875 -3.078125 C 2.253906 -3.765625 2.753906 -4.878906 3.421875 -6.421875 C 3.691406 -7.078125 4.015625 -7.859375 4.390625 -8.765625 C 4.773438 -9.671875 5.210938 -10.722656 5.703125 -11.921875 C 6.191406 -13.128906 6.738281 -14.5 7.34375 -16.03125 C 7.945312 -17.5625 8.617188 -19.273438 9.359375 -21.171875 L 12.203125 -23.796875 L 18.640625 -2.015625 C 19.097656 -1.890625 19.535156 -1.8125 19.953125 -1.78125 C 20.367188 -1.75 20.765625 -1.734375 21.140625 -1.734375 C 21.335938 -1.734375 21.515625 -1.734375 21.671875 -1.734375 C 21.835938 -1.742188 21.984375 -1.753906 22.109375 -1.765625 C 22.234375 -1.773438 22.359375 -1.789062 22.484375 -1.8125 C 21.847656 -1.507812 21.296875 -1.242188 20.828125 -1.015625 C 20.359375 -0.796875 19.941406 -0.609375 19.578125 -0.453125 C 19.210938 -0.304688 18.875 -0.191406 18.5625 -0.109375 C 18.25 -0.0351562 17.929688 0 17.609375 0 L 15 0 L 15.84375 -0.546875 L 13.21875 -9.21875 C 12.90625 -9.132812 12.539062 -9.050781 12.125 -8.96875 C 11.707031 -8.882812 11.210938 -8.8125 10.640625 -8.75 C 10.066406 -8.6875 9.398438 -8.625 8.640625 -8.5625 C 7.878906 -8.507812 7.003906 -8.460938 6.015625 -8.421875 C 5.554688 -7.453125 5.132812 -6.585938 4.75 -5.828125 C 4.363281 -5.078125 4.019531 -4.421875 3.71875 -3.859375 C 3.414062 -3.304688 3.144531 -2.835938 2.90625 -2.453125 C 2.675781 -2.078125 2.476562 -1.773438 2.3125 -1.546875 C 2.5 -1.503906 2.707031 -1.472656 2.9375 -1.453125 C 3.164062 -1.441406 3.394531 -1.4375 3.625 -1.4375 C 3.96875 -1.4375 4.3125 -1.453125 4.65625 -1.484375 C 5 -1.515625 5.316406 -1.546875 5.609375 -1.578125 C 5.929688 -1.617188 6.238281 -1.660156 6.53125 -1.703125 Z M 8.828125 -10.375 C 10.304688 -10.375 11.644531 -10.40625 12.84375 -10.46875 L 10.34375 -18.796875 C 9.664062 -17.054688 9.046875 -15.503906 8.484375 -14.140625 C 7.921875 -12.773438 7.390625 -11.519531 6.890625 -10.375 Z M 8.828125 -10.375 "/></g></g></g><g fill="#1c4b08" fill-opacity="1"><g transform="translate(559.38931, 322.964767)"><g><path d="M 17.484375 -17.578125 C 17.398438 -16.765625 17.179688 -16.046875 16.828125 -15.421875 C 16.484375 -14.804688 16.0625 -14.265625 15.5625 -13.796875 C 15.070312 -13.328125 14.546875 -12.929688 13.984375 -12.609375 C 13.421875 -12.285156 12.890625 -12.007812 12.390625 -11.78125 C 13.347656 -10.738281 14.210938 -9.8125 14.984375 -9 C 15.753906 -8.195312 16.4375 -7.484375 17.03125 -6.859375 C 17.632812 -6.242188 18.15625 -5.707031 18.59375 -5.25 C 19.039062 -4.800781 19.425781 -4.421875 19.75 -4.109375 C 20.488281 -3.378906 21.003906 -2.894531 21.296875 -2.65625 C 21.609375 -2.414062 21.941406 -2.25 22.296875 -2.15625 C 22.660156 -2.0625 23.015625 -2.015625 23.359375 -2.015625 C 23.640625 -2.015625 23.910156 -2.039062 24.171875 -2.09375 C 24.429688 -2.144531 24.640625 -2.207031 24.796875 -2.28125 C 24.273438 -1.925781 23.8125 -1.609375 23.40625 -1.328125 C 23.007812 -1.046875 22.644531 -0.800781 22.3125 -0.59375 C 21.976562 -0.394531 21.660156 -0.238281 21.359375 -0.125 C 21.054688 -0.0195312 20.75 0.03125 20.4375 0.03125 C 20.21875 0.03125 20 0 19.78125 -0.0625 C 19.570312 -0.125 19.347656 -0.226562 19.109375 -0.375 C 18.878906 -0.519531 18.628906 -0.703125 18.359375 -0.921875 C 18.097656 -1.140625 17.804688 -1.398438 17.484375 -1.703125 C 17.273438 -1.910156 16.960938 -2.242188 16.546875 -2.703125 C 16.128906 -3.171875 15.664062 -3.691406 15.15625 -4.265625 C 14.644531 -4.835938 14.109375 -5.4375 13.546875 -6.0625 C 12.992188 -6.6875 12.46875 -7.265625 11.96875 -7.796875 C 11.476562 -8.328125 11.046875 -8.78125 10.671875 -9.15625 C 10.296875 -9.539062 10.035156 -9.773438 9.890625 -9.859375 C 9.734375 -9.960938 9.5625 -10.050781 9.375 -10.125 C 9.21875 -10.1875 9.035156 -10.242188 8.828125 -10.296875 C 8.628906 -10.347656 8.441406 -10.363281 8.265625 -10.34375 L 10.640625 -11.984375 C 11.179688 -11.984375 11.703125 -12.109375 12.203125 -12.359375 C 12.703125 -12.609375 13.132812 -12.972656 13.5 -13.453125 C 13.863281 -13.941406 14.148438 -14.535156 14.359375 -15.234375 C 14.566406 -15.941406 14.648438 -16.734375 14.609375 -17.609375 C 14.578125 -18.140625 14.457031 -18.617188 14.25 -19.046875 C 14.039062 -19.484375 13.769531 -19.867188 13.4375 -20.203125 C 13.101562 -20.546875 12.722656 -20.84375 12.296875 -21.09375 C 11.867188 -21.34375 11.429688 -21.550781 10.984375 -21.71875 C 10.535156 -21.882812 10.085938 -22.007812 9.640625 -22.09375 C 9.203125 -22.175781 8.796875 -22.21875 8.421875 -22.21875 C 8.171875 -22.21875 7.894531 -22.210938 7.59375 -22.203125 C 7.300781 -22.191406 7.007812 -22.1875 6.71875 -22.1875 C 6.6875 -20.144531 6.648438 -18.320312 6.609375 -16.71875 C 6.578125 -15.113281 6.539062 -13.6875 6.5 -12.4375 C 6.46875 -11.1875 6.4375 -10.109375 6.40625 -9.203125 C 6.382812 -8.304688 6.359375 -7.546875 6.328125 -6.921875 C 6.265625 -5.429688 6.203125 -4.425781 6.140625 -3.90625 C 6.109375 -3.6875 6.054688 -3.460938 5.984375 -3.234375 C 5.921875 -3.035156 5.832031 -2.820312 5.71875 -2.59375 C 5.601562 -2.363281 5.457031 -2.140625 5.28125 -1.921875 C 5.75 -1.859375 6.171875 -1.820312 6.546875 -1.8125 C 6.921875 -1.8125 7.269531 -1.8125 7.59375 -1.8125 C 8.34375 -1.8125 8.894531 -1.832031 9.25 -1.875 C 9.601562 -1.925781 9.804688 -1.960938 9.859375 -1.984375 C 9.296875 -1.703125 8.757812 -1.4375 8.25 -1.1875 C 7.75 -0.945312 7.269531 -0.734375 6.8125 -0.546875 C 6.351562 -0.367188 5.914062 -0.226562 5.5 -0.125 C 5.082031 -0.0195312 4.671875 0.03125 4.265625 0.03125 L 1.40625 0.03125 L 2.84375 -0.9375 C 2.925781 -1.21875 3 -1.554688 3.0625 -1.953125 C 3.132812 -2.347656 3.195312 -2.769531 3.25 -3.21875 C 3.3125 -3.675781 3.359375 -4.144531 3.390625 -4.625 C 3.429688 -5.113281 3.46875 -5.59375 3.5 -6.0625 C 3.570312 -7.144531 3.625 -8.289062 3.65625 -9.5 C 3.675781 -11.175781 3.695312 -12.796875 3.71875 -14.359375 C 3.726562 -15.023438 3.738281 -15.707031 3.75 -16.40625 C 3.757812 -17.113281 3.765625 -17.800781 3.765625 -18.46875 C 3.773438 -19.144531 3.785156 -19.785156 3.796875 -20.390625 C 3.804688 -20.992188 3.8125 -21.535156 3.8125 -22.015625 L 0.875 -21.78125 L 4.0625 -23.703125 C 4.25 -23.660156 4.453125 -23.632812 4.671875 -23.625 C 4.898438 -23.625 5.132812 -23.625 5.375 -23.625 C 5.84375 -23.625 6.304688 -23.644531 6.765625 -23.6875 C 7.222656 -23.726562 7.675781 -23.769531 8.125 -23.8125 C 8.582031 -23.863281 9.03125 -23.910156 9.46875 -23.953125 C 9.90625 -24.003906 10.347656 -24.03125 10.796875 -24.03125 C 11.671875 -24.03125 12.53125 -23.878906 13.375 -23.578125 C 14.21875 -23.285156 14.957031 -22.859375 15.59375 -22.296875 C 16.226562 -21.742188 16.726562 -21.066406 17.09375 -20.265625 C 17.457031 -19.472656 17.585938 -18.578125 17.484375 -17.578125 Z M 24.84375 -2.3125 C 24.820312 -2.300781 24.8125 -2.296875 24.8125 -2.296875 L 24.796875 -2.296875 L 24.796875 -2.28125 L 24.796875 -2.296875 L 24.8125 -2.296875 C 24.820312 -2.304688 24.832031 -2.3125 24.84375 -2.3125 Z M 24.84375 -2.3125 "/></g></g></g><g fill="#1c4b08" fill-opacity="1"><g transform="translate(584.523235, 322.964767)"><g><path d="M 9.890625 -2.109375 C 9.304688 -1.722656 8.820312 -1.382812 8.4375 -1.09375 C 8.050781 -0.8125 7.703125 -0.578125 7.390625 -0.390625 C 7.085938 -0.210938 6.789062 -0.0820312 6.5 0 C 6.207031 0.0820312 5.863281 0.125 5.46875 0.125 C 4.945312 0.125 4.5 0.101562 4.125 0.0625 C 3.757812 0.0195312 3.390625 0 3.015625 0 C 2.828125 0 2.632812 0.00390625 2.4375 0.015625 C 2.25 0.0351562 2.039062 0.0703125 1.8125 0.125 C 2.125 -0.132812 2.40625 -0.414062 2.65625 -0.71875 C 2.90625 -1.03125 3.117188 -1.410156 3.296875 -1.859375 C 3.484375 -2.304688 3.625 -2.84375 3.71875 -3.46875 C 3.820312 -4.09375 3.875 -4.847656 3.875 -5.734375 L 3.875 -22.28125 C 3.53125 -22.25 3.117188 -22.207031 2.640625 -22.15625 C 2.160156 -22.101562 1.613281 -22.03125 1 -21.9375 C 1.59375 -22.425781 2.125 -22.796875 2.59375 -23.046875 C 3.070312 -23.296875 3.476562 -23.476562 3.8125 -23.59375 C 4.207031 -23.726562 4.5625 -23.804688 4.875 -23.828125 C 5.25 -23.816406 5.664062 -23.820312 6.125 -23.84375 C 6.59375 -23.863281 7.039062 -23.890625 7.46875 -23.921875 C 7.90625 -23.960938 8.300781 -24.015625 8.65625 -24.078125 C 9.019531 -24.140625 9.289062 -24.203125 9.46875 -24.265625 C 8.957031 -23.929688 8.492188 -23.644531 8.078125 -23.40625 C 7.671875 -23.175781 7.285156 -22.984375 6.921875 -22.828125 C 6.859375 -20.847656 6.804688 -19.078125 6.765625 -17.515625 C 6.734375 -15.953125 6.703125 -14.566406 6.671875 -13.359375 C 6.648438 -12.148438 6.628906 -11.109375 6.609375 -10.234375 C 6.597656 -9.359375 6.585938 -8.609375 6.578125 -7.984375 C 6.535156 -6.523438 6.519531 -5.53125 6.53125 -5 C 6.519531 -4.59375 6.46875 -4.191406 6.375 -3.796875 C 6.289062 -3.453125 6.160156 -3.082031 5.984375 -2.6875 C 5.804688 -2.300781 5.554688 -1.953125 5.234375 -1.640625 C 5.441406 -1.617188 5.640625 -1.609375 5.828125 -1.609375 C 6.023438 -1.609375 6.21875 -1.609375 6.40625 -1.609375 C 6.96875 -1.609375 7.460938 -1.628906 7.890625 -1.671875 C 8.316406 -1.722656 8.679688 -1.785156 8.984375 -1.859375 C 9.328125 -1.929688 9.628906 -2.015625 9.890625 -2.109375 Z M 9.890625 -2.109375 "/></g></g></g><g fill="#1c4b08" fill-opacity="1"><g transform="translate(597.513134, 322.964767)"><g><path d="M 17.859375 -7.921875 C 17.859375 -6.878906 17.644531 -5.960938 17.21875 -5.171875 C 16.800781 -4.378906 16.253906 -3.691406 15.578125 -3.109375 C 14.910156 -2.523438 14.15625 -2.03125 13.3125 -1.625 C 12.476562 -1.226562 11.640625 -0.910156 10.796875 -0.671875 C 9.953125 -0.429688 9.148438 -0.257812 8.390625 -0.15625 C 7.628906 -0.0507812 6.988281 0 6.46875 0 L 1.984375 0 C 2.148438 -0.0078125 2.296875 -0.0546875 2.421875 -0.140625 C 2.554688 -0.234375 2.671875 -0.351562 2.765625 -0.5 C 2.867188 -0.644531 2.953125 -0.804688 3.015625 -0.984375 C 3.085938 -1.171875 3.15625 -1.363281 3.21875 -1.5625 C 3.332031 -2 3.398438 -2.503906 3.421875 -3.078125 C 3.453125 -3.785156 3.5 -4.9375 3.5625 -6.53125 C 3.582031 -7.21875 3.609375 -8.03125 3.640625 -8.96875 C 3.671875 -9.90625 3.703125 -10.992188 3.734375 -12.234375 C 3.773438 -13.484375 3.820312 -14.898438 3.875 -16.484375 C 3.9375 -18.066406 4 -19.84375 4.0625 -21.8125 C 3.65625 -21.789062 3.191406 -21.773438 2.671875 -21.765625 C 2.160156 -21.753906 1.582031 -21.757812 0.9375 -21.78125 L 4 -23.5 C 4.375 -23.46875 4.765625 -23.441406 5.171875 -23.421875 C 5.585938 -23.398438 6 -23.390625 6.40625 -23.390625 C 6.8125 -23.390625 7.191406 -23.390625 7.546875 -23.390625 C 7.910156 -23.398438 8.226562 -23.414062 8.5 -23.4375 C 8.820312 -23.457031 9.117188 -23.476562 9.390625 -23.5 C 10.191406 -23.5 11.003906 -23.429688 11.828125 -23.296875 C 12.648438 -23.171875 13.394531 -22.929688 14.0625 -22.578125 C 14.726562 -22.222656 15.273438 -21.726562 15.703125 -21.09375 C 16.128906 -20.457031 16.34375 -19.640625 16.34375 -18.640625 C 16.28125 -17.867188 16.066406 -17.144531 15.703125 -16.46875 C 15.535156 -16.175781 15.332031 -15.878906 15.09375 -15.578125 C 14.851562 -15.273438 14.554688 -14.988281 14.203125 -14.71875 C 13.847656 -14.445312 13.425781 -14.195312 12.9375 -13.96875 C 12.457031 -13.738281 11.90625 -13.546875 11.28125 -13.390625 C 11.457031 -13.410156 11.628906 -13.425781 11.796875 -13.4375 C 11.972656 -13.445312 12.148438 -13.453125 12.328125 -13.453125 C 13.015625 -13.453125 13.625 -13.375 14.15625 -13.21875 C 14.6875 -13.0625 15.144531 -12.847656 15.53125 -12.578125 C 15.914062 -12.316406 16.238281 -12.019531 16.5 -11.6875 C 16.769531 -11.351562 16.992188 -11.019531 17.171875 -10.6875 C 17.578125 -9.863281 17.804688 -8.941406 17.859375 -7.921875 Z M 6.34375 -4.03125 C 6.300781 -3.664062 6.21875 -3.320312 6.09375 -3 C 6 -2.71875 5.863281 -2.4375 5.6875 -2.15625 C 5.519531 -1.882812 5.300781 -1.691406 5.03125 -1.578125 C 6.125 -1.472656 7.054688 -1.398438 7.828125 -1.359375 C 8.609375 -1.328125 9.242188 -1.3125 9.734375 -1.3125 C 9.984375 -1.3125 10.203125 -1.3125 10.390625 -1.3125 C 10.585938 -1.320312 10.742188 -1.332031 10.859375 -1.34375 C 11.003906 -1.351562 11.117188 -1.363281 11.203125 -1.375 C 11.546875 -1.414062 11.90625 -1.5625 12.28125 -1.8125 C 12.664062 -2.070312 13.023438 -2.410156 13.359375 -2.828125 C 13.703125 -3.242188 14 -3.726562 14.25 -4.28125 C 14.5 -4.84375 14.660156 -5.460938 14.734375 -6.140625 C 14.828125 -7.046875 14.78125 -7.859375 14.59375 -8.578125 C 14.40625 -9.304688 14.066406 -9.921875 13.578125 -10.421875 C 13.097656 -10.921875 12.472656 -11.304688 11.703125 -11.578125 C 10.929688 -11.847656 10.019531 -11.984375 8.96875 -11.984375 C 8.78125 -11.984375 8.582031 -11.976562 8.375 -11.96875 C 8.164062 -11.957031 7.957031 -11.9375 7.75 -11.90625 C 8.457031 -12.25 9.132812 -12.570312 9.78125 -12.875 C 10.425781 -13.1875 10.988281 -13.554688 11.46875 -13.984375 C 11.957031 -14.421875 12.34375 -14.953125 12.625 -15.578125 C 12.914062 -16.210938 13.0625 -17.03125 13.0625 -18.03125 C 13.0625 -18.59375 12.960938 -19.082031 12.765625 -19.5 C 12.566406 -19.914062 12.300781 -20.265625 11.96875 -20.546875 C 11.644531 -20.835938 11.269531 -21.066406 10.84375 -21.234375 C 10.425781 -21.410156 9.988281 -21.546875 9.53125 -21.640625 C 9.082031 -21.742188 8.632812 -21.8125 8.1875 -21.84375 C 7.738281 -21.875 7.328125 -21.894531 6.953125 -21.90625 C 6.910156 -19.90625 6.867188 -18.117188 6.828125 -16.546875 C 6.785156 -14.972656 6.742188 -13.578125 6.703125 -12.359375 C 6.671875 -11.148438 6.640625 -10.109375 6.609375 -9.234375 C 6.585938 -8.359375 6.554688 -7.609375 6.515625 -6.984375 C 6.453125 -5.523438 6.394531 -4.539062 6.34375 -4.03125 Z M 6.34375 -4.03125 "/></g></g></g><g fill="#1c4b08" fill-opacity="1"><g transform="translate(619.090725, 322.964767)"><g><path d="M 9.328125 -23.671875 C 8.890625 -23.359375 8.40625 -23.03125 7.875 -22.6875 C 7.34375 -22.351562 6.832031 -22.082031 6.34375 -21.875 C 6.300781 -20.476562 6.265625 -19.207031 6.234375 -18.0625 C 6.203125 -16.914062 6.171875 -15.878906 6.140625 -14.953125 C 6.117188 -14.023438 6.101562 -13.207031 6.09375 -12.5 C 6.082031 -11.789062 6.070312 -11.171875 6.0625 -10.640625 C 6.039062 -9.390625 6.035156 -8.4375 6.046875 -7.78125 C 6.023438 -7.007812 6.132812 -6.253906 6.375 -5.515625 C 6.613281 -4.785156 7.003906 -4.128906 7.546875 -3.546875 C 8.085938 -2.972656 8.796875 -2.507812 9.671875 -2.15625 C 10.546875 -1.8125 11.601562 -1.640625 12.84375 -1.640625 C 13.519531 -1.660156 14.226562 -1.757812 14.96875 -1.9375 C 15.582031 -2.082031 16.265625 -2.304688 17.015625 -2.609375 C 17.773438 -2.921875 18.515625 -3.375 19.234375 -3.96875 L 19.234375 -21.6875 C 19.085938 -21.707031 18.929688 -21.71875 18.765625 -21.71875 C 18.597656 -21.71875 18.4375 -21.71875 18.28125 -21.71875 C 17.976562 -21.71875 17.675781 -21.707031 17.375 -21.6875 C 17.070312 -21.675781 16.796875 -21.648438 16.546875 -21.609375 C 17.066406 -22.066406 17.523438 -22.414062 17.921875 -22.65625 C 18.316406 -22.90625 18.65625 -23.085938 18.9375 -23.203125 C 19.269531 -23.335938 19.554688 -23.414062 19.796875 -23.4375 C 20.003906 -23.4375 20.265625 -23.4375 20.578125 -23.4375 C 20.898438 -23.445312 21.238281 -23.457031 21.59375 -23.46875 C 21.945312 -23.476562 22.304688 -23.488281 22.671875 -23.5 C 23.035156 -23.519531 23.375 -23.535156 23.6875 -23.546875 C 24 -23.566406 24.265625 -23.582031 24.484375 -23.59375 C 24.710938 -23.613281 24.863281 -23.640625 24.9375 -23.671875 C 24.5625 -23.390625 24.132812 -23.097656 23.65625 -22.796875 C 23.175781 -22.503906 22.71875 -22.257812 22.28125 -22.0625 L 22.28125 -5.15625 C 22.269531 -4.625 22.238281 -4.128906 22.1875 -3.671875 C 22.132812 -3.273438 22.0625 -2.890625 21.96875 -2.515625 C 21.875 -2.140625 21.734375 -1.878906 21.546875 -1.734375 C 22.160156 -1.648438 22.703125 -1.597656 23.171875 -1.578125 C 23.640625 -1.554688 24.050781 -1.546875 24.40625 -1.546875 C 25.019531 -1.546875 25.460938 -1.566406 25.734375 -1.609375 C 26.015625 -1.648438 26.171875 -1.679688 26.203125 -1.703125 C 25.691406 -1.410156 25.222656 -1.15625 24.796875 -0.9375 C 24.367188 -0.726562 23.96875 -0.554688 23.59375 -0.421875 C 23.21875 -0.285156 22.847656 -0.179688 22.484375 -0.109375 C 22.128906 -0.0351562 21.773438 0 21.421875 0 L 18.21875 0 C 18.46875 -0.0820312 18.660156 -0.269531 18.796875 -0.5625 C 18.941406 -0.863281 19.046875 -1.171875 19.109375 -1.484375 C 19.179688 -1.847656 19.222656 -2.25 19.234375 -2.6875 L 19.234375 -3.453125 C 18.078125 -2.515625 16.972656 -1.796875 15.921875 -1.296875 C 14.878906 -0.796875 13.945312 -0.429688 13.125 -0.203125 C 12.175781 0.078125 11.28125 0.234375 10.4375 0.265625 C 9.0625 0.265625 7.90625 0.0820312 6.96875 -0.28125 C 6.039062 -0.644531 5.296875 -1.15625 4.734375 -1.8125 C 4.171875 -2.46875 3.769531 -3.253906 3.53125 -4.171875 C 3.289062 -5.097656 3.191406 -6.109375 3.234375 -7.203125 C 3.222656 -8.117188 3.226562 -9.265625 3.25 -10.640625 C 3.257812 -11.816406 3.273438 -13.3125 3.296875 -15.125 C 3.328125 -16.945312 3.367188 -19.144531 3.421875 -21.71875 L 2.6875 -21.71875 C 2.382812 -21.71875 2.078125 -21.707031 1.765625 -21.6875 C 1.460938 -21.675781 1.1875 -21.648438 0.9375 -21.609375 C 1.445312 -22.066406 1.898438 -22.414062 2.296875 -22.65625 C 2.703125 -22.90625 3.046875 -23.085938 3.328125 -23.203125 C 3.648438 -23.335938 3.941406 -23.414062 4.203125 -23.4375 C 4.398438 -23.4375 4.65625 -23.4375 4.96875 -23.4375 C 5.289062 -23.445312 5.628906 -23.457031 5.984375 -23.46875 C 6.335938 -23.476562 6.695312 -23.488281 7.0625 -23.5 C 7.4375 -23.519531 7.773438 -23.535156 8.078125 -23.546875 C 8.390625 -23.566406 8.65625 -23.582031 8.875 -23.59375 C 9.09375 -23.613281 9.242188 -23.640625 9.328125 -23.671875 Z M 26.203125 -1.703125 L 26.203125 -1.71875 L 26.21875 -1.71875 C 26.226562 -1.726562 26.238281 -1.734375 26.25 -1.734375 Z M 26.203125 -1.703125 "/></g></g></g><g fill="#1c4b08" fill-opacity="1"><g transform="translate(647.649912, 322.964767)"><g><path d="M 15.59375 -6.921875 C 15.59375 -6.359375 15.410156 -5.78125 15.046875 -5.1875 C 14.691406 -4.601562 14.222656 -4.035156 13.640625 -3.484375 C 13.054688 -2.929688 12.398438 -2.410156 11.671875 -1.921875 C 10.953125 -1.429688 10.222656 -0.992188 9.484375 -0.609375 C 8.742188 -0.234375 8.035156 0.0625 7.359375 0.28125 C 6.679688 0.507812 6.109375 0.628906 5.640625 0.640625 C 5.191406 0.660156 4.707031 0.617188 4.1875 0.515625 C 3.675781 0.421875 3.1875 0.300781 2.71875 0.15625 C 2.257812 0.0078125 1.847656 -0.144531 1.484375 -0.3125 C 1.117188 -0.488281 0.867188 -0.640625 0.734375 -0.765625 C 0.660156 -0.859375 0.597656 -0.957031 0.546875 -1.0625 C 0.492188 -1.164062 0.46875 -1.28125 0.46875 -1.40625 C 0.46875 -1.53125 0.503906 -1.660156 0.578125 -1.796875 C 0.648438 -1.929688 0.769531 -2.070312 0.9375 -2.21875 C 1.082031 -2.332031 1.269531 -2.484375 1.5 -2.671875 C 1.695312 -2.828125 1.945312 -3.023438 2.25 -3.265625 C 2.5625 -3.515625 2.941406 -3.8125 3.390625 -4.15625 C 3.222656 -4 3.117188 -3.847656 3.078125 -3.703125 C 3.035156 -3.554688 3.019531 -3.425781 3.03125 -3.3125 C 3.039062 -3.175781 3.082031 -3.054688 3.15625 -2.953125 C 3.269531 -2.804688 3.460938 -2.644531 3.734375 -2.46875 C 4.003906 -2.300781 4.332031 -2.140625 4.71875 -1.984375 C 5.113281 -1.835938 5.550781 -1.710938 6.03125 -1.609375 C 6.519531 -1.515625 7.03125 -1.46875 7.5625 -1.46875 C 8.195312 -1.46875 8.832031 -1.53125 9.46875 -1.65625 C 10.101562 -1.789062 10.675781 -2.003906 11.1875 -2.296875 C 11.695312 -2.585938 12.101562 -2.976562 12.40625 -3.46875 C 12.71875 -3.957031 12.875 -4.5625 12.875 -5.28125 C 12.875 -5.945312 12.71875 -6.53125 12.40625 -7.03125 C 12.101562 -7.539062 11.695312 -8 11.1875 -8.40625 C 10.6875 -8.8125 10.109375 -9.179688 9.453125 -9.515625 C 8.804688 -9.847656 8.144531 -10.175781 7.46875 -10.5 C 6.800781 -10.832031 6.140625 -11.164062 5.484375 -11.5 C 4.835938 -11.84375 4.265625 -12.222656 3.765625 -12.640625 C 3.265625 -13.066406 2.859375 -13.539062 2.546875 -14.0625 C 2.234375 -14.59375 2.078125 -15.207031 2.078125 -15.90625 C 2.078125 -16.582031 2.242188 -17.242188 2.578125 -17.890625 C 2.910156 -18.546875 3.347656 -19.160156 3.890625 -19.734375 C 4.441406 -20.304688 5.066406 -20.835938 5.765625 -21.328125 C 6.472656 -21.828125 7.195312 -22.253906 7.9375 -22.609375 C 8.6875 -22.960938 9.414062 -23.238281 10.125 -23.4375 C 10.84375 -23.644531 11.492188 -23.753906 12.078125 -23.765625 C 12.628906 -23.773438 13.160156 -23.75 13.671875 -23.6875 C 14.191406 -23.625 14.625 -23.53125 14.96875 -23.40625 C 15.320312 -23.289062 15.5625 -23.144531 15.6875 -22.96875 C 15.820312 -22.789062 15.789062 -22.585938 15.59375 -22.359375 C 15.4375 -22.171875 15.238281 -21.972656 15 -21.765625 C 14.78125 -21.578125 14.507812 -21.367188 14.1875 -21.140625 C 13.875 -20.910156 13.488281 -20.664062 13.03125 -20.40625 C 13.113281 -20.53125 13.160156 -20.644531 13.171875 -20.75 C 13.179688 -20.851562 13.175781 -20.941406 13.15625 -21.015625 C 13.125 -21.085938 13.082031 -21.148438 13.03125 -21.203125 C 12.945312 -21.265625 12.8125 -21.332031 12.625 -21.40625 C 12.4375 -21.488281 12.195312 -21.566406 11.90625 -21.640625 C 11.625 -21.722656 11.300781 -21.785156 10.9375 -21.828125 C 10.582031 -21.878906 10.203125 -21.90625 9.796875 -21.90625 C 9.140625 -21.90625 8.507812 -21.828125 7.90625 -21.671875 C 7.300781 -21.515625 6.765625 -21.269531 6.296875 -20.9375 C 5.835938 -20.613281 5.46875 -20.195312 5.1875 -19.6875 C 4.90625 -19.1875 4.765625 -18.597656 4.765625 -17.921875 C 4.765625 -17.179688 4.921875 -16.53125 5.234375 -15.96875 C 5.546875 -15.414062 5.957031 -14.921875 6.46875 -14.484375 C 6.976562 -14.054688 7.554688 -13.664062 8.203125 -13.3125 C 8.847656 -12.96875 9.503906 -12.632812 10.171875 -12.3125 C 10.847656 -11.988281 11.507812 -11.65625 12.15625 -11.3125 C 12.8125 -10.976562 13.394531 -10.601562 13.90625 -10.1875 C 14.414062 -9.78125 14.820312 -9.3125 15.125 -8.78125 C 15.4375 -8.25 15.59375 -7.628906 15.59375 -6.921875 Z M 15.59375 -6.921875 "/></g></g></g><g clip-path="url(#b709e320ff)"><path fill="#1c4b08" d="M 511.480469 480.730469 C 411.125 480.730469 329.382812 398.992188 329.382812 298.507812 C 329.382812 198.027344 411.125 116.410156 511.480469 116.410156 C 611.839844 116.410156 693.582031 198.152344 693.582031 298.507812 C 693.703125 398.992188 611.960938 480.730469 511.480469 480.730469 Z M 511.480469 119.492188 C 412.726562 119.492188 332.464844 199.753906 332.464844 298.507812 C 332.464844 397.265625 412.847656 477.648438 511.480469 477.648438 C 610.113281 477.648438 690.621094 397.265625 690.621094 298.507812 C 690.621094 199.753906 610.238281 119.492188 511.480469 119.492188 Z M 511.480469 119.492188 " fill-opacity="1" fill-rule="nonzero"/></g><g fill="#1c4b08" fill-opacity="1"><g transform="translate(720.72596, 292.14373)"><g><path d="M -0.0117188 1.5625 L -0.0234375 3.925781 L 8.988281 3.980469 L 8.917969 15.441406 L 10.964844 15.453125 L 11.035156 3.992188 L 17.917969 4.039062 L 17.835938 17.175781 L 19.941406 17.1875 L 20.039062 1.691406 Z M -0.0117188 1.5625 "/></g></g></g><g fill="#1c4b08" fill-opacity="1"><g transform="translate(720.175715, 317.604641)"><g><path d="M -2.214844 10.628906 C -3.003906 16.234375 -0.140625 20.570312 5.40625 21.351562 L 17.007812 22.984375 L 17.335938 20.648438 L 5.707031 19.011719 C 1.398438 18.402344 -0.707031 15.207031 -0.105469 10.953125 C 0.496094 6.675781 3.542969 4.203125 7.710938 4.789062 L 19.339844 6.429688 L 19.671875 4.0625 L 8.070312 2.429688 C 2.523438 1.648438 -1.425781 5.027344 -2.214844 10.628906 Z M -2.214844 10.628906 "/></g></g></g><g fill="#1c4b08" fill-opacity="1"><g transform="translate(715.505044, 346.730337)"><g><path d="M -0.4375 1.5 L -1.097656 3.765625 L 15.527344 8.613281 L 15.511719 8.667969 L -4.792969 16.433594 L -5.675781 19.464844 L 13.570312 25.074219 L 14.242188 22.78125 L -2.386719 17.9375 L -2.378906 17.910156 L 17.925781 10.144531 L 18.808594 7.113281 Z M -0.4375 1.5 "/></g></g></g><g fill="#1c4b08" fill-opacity="1"><g transform="translate(706.701186, 375.057284)"><g><path d="M -0.652344 1.421875 L -4.648438 10.101562 C -7.632812 16.585938 -6.027344 21.671875 -0.191406 24.359375 C 5.671875 27.058594 10.582031 24.964844 13.566406 18.480469 L 17.558594 9.800781 Z M 0.269531 4.445312 L 14.660156 11.066406 L 11.652344 17.601562 C 9.3125 22.691406 5.445312 24.355469 0.796875 22.214844 C -3.828125 20.085938 -5.078125 16.070312 -2.734375 10.980469 Z M 0.269531 4.445312 "/></g></g></g><g fill="#1c4b08" fill-opacity="1"><g transform="translate(693.124492, 403.058046)"><g><path d="M -0.125 0.191406 L -1.507812 2.308594 L 1.304688 6.792969 L -5.101562 16.605469 L -10.351562 15.859375 L -11.722656 17.953125 L 10.085938 21.222656 L 11.625 18.863281 Z M 2.582031 8.683594 L 9.03125 18.835938 L 9 18.882812 L -2.871094 17.039062 Z M 2.582031 8.683594 "/></g></g></g><g fill="#1c4b08" fill-opacity="1"><g transform="translate(676.63649, 427.467186)"><g><path d="M -9.285156 9.320312 C -13.058594 13.539062 -13.671875 18.789062 -10.847656 22.839844 L -8.882812 21.582031 C -11.199219 18.328125 -10.730469 14.09375 -7.71875 10.722656 C -3.777344 6.3125 1.226562 5.75 5.167969 9.238281 C 9.113281 12.761719 9.300781 17.585938 5.660156 21.65625 C 3.046875 24.582031 -0.550781 25.40625 -3.644531 23.785156 L -4.574219 25.894531 C -0.601562 27.804688 3.988281 26.683594 7.230469 23.058594 C 11.855469 17.886719 11.640625 11.855469 6.742188 7.476562 C 1.867188 3.117188 -4.359375 3.808594 -9.285156 9.320312 Z M -9.285156 9.320312 "/></g></g></g><g fill="#1c4b08" fill-opacity="1"><g transform="translate(654.11064, 451.371247)"><g><path d="M -6.238281 4.515625 C -9.445312 7.242188 -9.675781 10.832031 -6.894531 14.105469 L 2.015625 24.59375 L 3.835938 23.046875 L -4.929688 12.734375 C -6.953125 10.347656 -6.914062 7.851562 -4.789062 6.046875 C -2.6875 4.261719 -0.25 4.316406 1.914062 6.25 L 2.925781 4.230469 C 0.00390625 1.9375 -3.3125 2.03125 -6.238281 4.515625 Z M -6.238281 4.515625 "/></g></g></g><g fill="#1c4b08" fill-opacity="1"><g transform="translate(635.934453, 466.400267)"><g><path d="M -0.191406 0.125 L -2.3125 1.5 L -1.5625 6.738281 L -11.390625 13.113281 L -15.890625 10.304688 L -17.992188 11.664062 L 0.625 23.488281 L 2.984375 21.957031 Z M -1.15625 8.984375 L 0.625 20.878906 L 0.578125 20.910156 L -9.53125 14.414062 Z M -1.15625 8.984375 "/></g></g></g><g fill="#1c4b08" fill-opacity="1"><g transform="translate(610.654977, 481.8187)"><g/></g></g><g fill="#1c4b08" fill-opacity="1"><g transform="translate(595.782473, 488.891082)"><g/></g></g><g fill="#1c4b08" fill-opacity="1"><g transform="translate(580.392113, 494.751734)"><g/></g></g><g fill="#1c4b08" fill-opacity="1"><g transform="translate(564.582473, 499.363163)"><g/></g></g><g fill="#1c4b08" fill-opacity="1"><g transform="translate(548.454785, 502.695745)"><g/></g></g><g fill="#1c4b08" fill-opacity="1"><g transform="translate(532.112241, 504.728293)"><g/></g></g><g fill="#1c4b08" fill-opacity="1"><g transform="translate(515.659488, 505.447644)"><g/></g></g><g fill="#1c4b08" fill-opacity="1"><g transform="translate(499.201955, 504.84934)"><g/></g></g><g fill="#1c4b08" fill-opacity="1"><g transform="translate(482.844895, 502.93713)"><g/></g></g><g fill="#1c4b08" fill-opacity="1"><g transform="translate(466.693094, 499.723205)"><g/></g></g><g fill="#1c4b08" fill-opacity="1"><g transform="translate(450.849939, 495.228175)"><g/></g></g><g fill="#1c4b08" fill-opacity="1"><g transform="translate(435.416957, 489.480893)"><g/></g></g><g fill="#1c4b08" fill-opacity="1"><g transform="translate(420.492785, 482.518097)"><g/></g></g><g fill="#1c4b08" fill-opacity="1"><g transform="translate(406.173147, 474.384378)"><g/></g></g><g fill="#1c4b08" fill-opacity="1"><g transform="translate(392.549654, 465.131798)"><g/></g></g><g fill="#1c4b08" fill-opacity="1"><g transform="translate(379.709507, 454.819622)"><g/></g></g><g fill="#1c4b08" fill-opacity="1"><g transform="translate(367.734969, 443.513886)"><g/></g></g><g fill="#1c4b08" fill-opacity="1"><g transform="translate(356.702672, 431.286917)"><g/></g></g><g fill="#1c4b08" fill-opacity="1"><g transform="translate(346.683285, 418.217048)"><g/></g></g><g fill="#1c4b08" fill-opacity="1"><g transform="translate(337.740921, 404.38795)"><g/></g></g><g fill="#1c4b08" fill-opacity="1"><g transform="translate(329.932852, 389.888177)"><g/></g></g><g fill="#1c4b08" fill-opacity="1"><g transform="translate(323.309087, 374.810495)"><g/></g></g><g fill="#1c4b08" fill-opacity="1"><g transform="translate(317.911986, 359.251532)"><g/></g></g><g fill="#1c4b08" fill-opacity="1"><g transform="translate(313.776142, 343.310892)"><g/></g></g><g fill="#1c4b08" fill-opacity="1"><g transform="translate(310.928033, 327.090571)"><g/></g></g><g fill="#1c4b08" fill-opacity="1"><g transform="translate(309.246443, 310.805039)"><g><path d="M -0.0195312 -1.5625 L -0.046875 -3.925781 L -9.058594 -3.820312 L -9.191406 -15.277344 L -11.238281 -15.253906 L -11.105469 -3.796875 L -17.988281 -3.714844 L -18.140625 -16.851562 L -20.242188 -16.828125 L -20.066406 -1.332031 Z M -0.0195312 -1.5625 "/></g></g></g><g fill="#1c4b08" fill-opacity="1"><g transform="translate(309.200256, 285.377065)"><g><path d="M 2.472656 -13.066406 C 3.449219 -20.308594 -0.207031 -25.765625 -6.519531 -26.613281 C -12.863281 -27.464844 -17.828125 -23.171875 -18.804688 -15.929688 C -19.773438 -8.714844 -16.117188 -3.257812 -9.777344 -2.40625 C -3.464844 -1.554688 1.503906 -5.851562 2.472656 -13.066406 Z M 0.390625 -13.347656 C -0.390625 -7.542969 -4.390625 -4.0625 -9.460938 -4.742188 C -14.5625 -5.429688 -17.5 -9.839844 -16.71875 -15.648438 C -15.9375 -21.453125 -11.941406 -24.933594 -6.839844 -24.246094 C -1.765625 -23.566406 1.167969 -19.152344 0.390625 -13.347656 Z M 0.390625 -13.347656 "/></g></g></g><g fill="#1c4b08" fill-opacity="1"><g transform="translate(314.557597, 251.460348)"><g><path d="M 3.765625 -10.183594 C 5.375 -15.609375 3.1875 -20.324219 -2.183594 -21.917969 L -13.414062 -25.25 L -14.085938 -22.988281 L -2.828125 -19.644531 C 1.34375 -18.40625 2.949219 -14.933594 1.730469 -10.816406 C 0.5 -6.675781 -2.882812 -4.683594 -6.917969 -5.878906 L -18.175781 -9.222656 L -18.855469 -6.933594 L -7.625 -3.597656 C -2.253906 -2.003906 2.15625 -4.757812 3.765625 -10.183594 Z M 3.765625 -10.183594 "/></g></g></g><g fill="#1c4b08" fill-opacity="1"><g transform="translate(323.480036, 223.338631)"><g><path d="M 0.65625 -1.421875 L 1.644531 -3.5625 L -14.082031 -10.820312 L -14.054688 -10.871094 L 7.171875 -15.542969 L 8.496094 -18.410156 L -9.707031 -26.808594 L -10.707031 -24.640625 L 5.015625 -17.382812 L 5.003906 -17.359375 L -16.226562 -12.6875 L -17.546875 -9.820312 Z M 0.65625 -1.421875 "/></g></g></g><g fill="#1c4b08" fill-opacity="1"><g transform="translate(336.381105, 196.626933)"><g><path d="M 0.855469 -1.308594 L 6.09375 -9.300781 C 10.003906 -15.269531 9.171875 -20.542969 3.796875 -24.0625 C -1.601562 -27.601562 -6.765625 -26.257812 -10.675781 -20.285156 L -15.914062 -12.292969 Z M 0.390625 -4.4375 L -12.859375 -13.113281 L -8.917969 -19.132812 C -5.847656 -23.820312 -1.777344 -24.894531 2.503906 -22.089844 C 6.761719 -19.300781 7.402344 -15.140625 4.332031 -10.453125 Z M 0.390625 -4.4375 "/></g></g></g><g fill="#1c4b08" fill-opacity="1"><g transform="translate(353.966367, 170.955102)"><g><path d="M 0.152344 -0.171875 L 1.832031 -2.0625 L -0.28125 -6.914062 L 7.503906 -15.664062 L 12.585938 -14.148438 L 14.25 -16.019531 L -6.832031 -22.480469 L -8.703125 -20.378906 Z M -1.269531 -8.96875 L -6.140625 -19.964844 L -6.105469 -20.007812 L 5.363281 -16.425781 Z M -1.269531 -8.96875 "/></g></g></g><g fill="#1c4b08" fill-opacity="1"><g transform="translate(374.040707, 149.333231)"><g><path d="M 6.359375 -5.429688 L 8.152344 -6.960938 L -3.5 -20.605469 L 2.6875 -25.886719 L 1.320312 -27.488281 L -12.84375 -15.394531 L -11.476562 -13.792969 L -5.292969 -19.074219 Z M 6.359375 -5.429688 "/></g></g></g><g fill="#1c4b08" fill-opacity="1"><g transform="translate(395.113827, 132.307047)"><g><path d="M 1.285156 -0.894531 L 3.222656 -2.242188 L -8.230469 -18.695312 L -10.167969 -17.347656 Z M 1.285156 -0.894531 "/></g></g></g><g fill="#1c4b08" fill-opacity="1"><g transform="translate(406.09699, 124.483904)"><g><path d="M 12.042969 -5.640625 C 18.488281 -9.089844 20.769531 -15.246094 17.765625 -20.863281 C 14.746094 -26.503906 8.355469 -28.015625 1.914062 -24.570312 C -4.503906 -21.132812 -6.789062 -14.976562 -3.769531 -9.335938 C -0.765625 -3.71875 5.625 -2.203125 12.042969 -5.640625 Z M 11.050781 -7.496094 C 5.886719 -4.730469 0.726562 -5.9375 -1.691406 -10.449219 C -4.117188 -14.988281 -2.257812 -19.949219 2.90625 -22.714844 C 8.070312 -25.476562 13.230469 -24.273438 15.660156 -19.734375 C 18.074219 -15.222656 16.214844 -10.257812 11.050781 -7.496094 Z M 11.050781 -7.496094 "/></g></g></g><g fill="#1c4b08" fill-opacity="1"><g transform="translate(436.716909, 108.97712)"><g><path d="M 1.476562 -0.515625 L 3.703125 -1.292969 L -2.007812 -17.644531 L -1.953125 -17.660156 L 16.160156 -5.644531 L 19.140625 -6.6875 L 12.527344 -25.613281 L 10.273438 -24.824219 L 15.984375 -8.476562 L 15.957031 -8.464844 L -2.15625 -20.484375 L -5.136719 -19.441406 Z M 1.476562 -0.515625 "/></g></g></g></svg>